<?xml version="1.0" encoding="UTF-8" standalone="no"?>
<svg xmlns:dc="http://purl.org/dc/elements/1.1/" xmlns:cc="http://creativecommons.org/ns#" xmlns:rdf="http://www.w3.org/1999/02/22-rdf-syntax-ns#" xmlns:svg="http://www.w3.org/2000/svg" xmlns="http://www.w3.org/2000/svg" xmlns:sodipodi="http://sodipodi.sourceforge.net/DTD/sodipodi-0.dtd" xmlns:inkscape="http://www.inkscape.org/namespaces/inkscape" width="774.74561" height="900.40833" viewBox="0 0 7.7474561 9.0040833" id="svg2" version="1.1" inkscape:version="0.91 r13725" sodipodi:docname="Flag_of_the_Netherlands.svg"><link xmlns="" type="text/css" id="dark-mode" rel="stylesheet" href=""/><style xmlns="" type="text/css" id="dark-mode-custom-style"/>
  <metadata id="metadata14">
    <rdf:RDF>
      <cc:Work rdf:about="">
        <dc:format>image/svg+xml</dc:format>
        <dc:type rdf:resource="http://purl.org/dc/dcmitype/StillImage"/>
        <dc:title/>
      </cc:Work>
    </rdf:RDF>
  </metadata>
  <defs id="defs12"/>
  <sodipodi:namedview pagecolor="#ffffff" bordercolor="#666666" borderopacity="1" objecttolerance="10" gridtolerance="10" guidetolerance="10" inkscape:pageopacity="0" inkscape:pageshadow="2" inkscape:window-width="1600" inkscape:window-height="837" id="namedview10" showgrid="false" fit-margin-top="0" fit-margin-left="0" fit-margin-right="0" fit-margin-bottom="0" inkscape:zoom="0.83972969" inkscape:cx="470.05188" inkscape:cy="390.97006" inkscape:window-x="-8" inkscape:window-y="-8" inkscape:window-maximized="1" inkscape:current-layer="svg2"/>
  <path style="fill:#ffffff;stroke:#21468b;stroke-width:0.015;stroke-miterlimit:4;stroke-dasharray:none;stroke-opacity:1" d="m 2.5385547,3.0040938 -0.00459,0.024551 -0.00574,0.068457 -0.00359,0.043555 -0.016094,0.087988 -0.010312,0.056777 -0.011992,0.042832 -0.039453,0.140625 -0.00133,0.00477 0.00129,0.00508 -0.00641,0.049902 -0.012832,0.020469 -0.00324,0.016289 -0.00172,0.00555 -0.042598,0.1346289 -0.025567,0.063477 -0.015742,0.039082 -0.030254,0.075234 -0.031484,0.064707 -7.23e-4,0.0015 -0.1074804,0.2211328 -0.00154,0.00322 -2.54e-4,4.49e-4 -0.016738,0.034434 -0.00861,0.017871 -0.049629,0.081621 -0.00547,0.00937 -6e-5,8e-5 -0.00689,0.011621 -0.019121,0.032402 -5.08e-4,8.01e-4 -0.030781,0.052109 -0.06541,0.093242 -0.05873,0.071758 -0.034102,0.030781 -0.022266,0.020078 -0.00283,0.00262 -0.029844,0.041406 -0.019043,0.022148 -0.1902734,0.2217383 -0.0175,0.024102 -0.041953,0.057461 -0.0675,0.042851 1.76e-4,1.17e-4 0.057305,0.025762 0.052246,0.067266 -0.065762,-0.029316 -0.033223,-0.015723 -0.013184,-0.00766 0.00227,0.013203 -0.010703,0.020918 -0.00115,0.01293 -0.00109,0.017363 0.0051,0.011602 0.00289,0.00705 -0.00133,0.00422 -0.0026,0.00268 -0.00541,-9.18e-4 -0.00131,0.00512 -0.00184,0.00865 0.019492,0.00516 -0.00328,0.00537 -0.047519,0.00459 -0.039531,0.01543 -0.018672,-0.00223 -0.010547,-0.023828 0.00725,-0.00547 0.00875,0.014375 0.052793,-0.015176 0.00781,-0.00977 0.00691,-0.013496 -0.00377,-0.016973 -0.01873,-0.010078 -0.027773,-0.00605 0.02582,0.00219 0.016406,-0.00484 -0.00295,-0.010352 -0.017656,-0.005 c 0,0 0.00633,-0.00432 0.00639,-0.0076 l -0.058731,-0.00811 -0.031582,0.010098 c -4.03e-4,-0.00101 -3.53e-4,-0.018284 -0.00482,-0.017539 -6.34e-4,1.06e-4 0.00104,0.013639 -0.00393,0.020098 -0.00285,0.0037 -0.00152,0.00626 -0.00123,0.00678 -0.00126,0.00379 -0.00478,0.015372 -0.00529,0.014316 0,0 -0.018263,0.012639 -0.021543,0.016328 0.00476,-0.0067 0.019863,-0.029258 0.019863,-0.029258 0.00184,-0.00144 0.00167,-0.015151 0.00645,-0.013477 0.00161,5.63e-4 0.00178,-0.026062 -2.15e-4,-0.025996 -0.00285,10e-5 -0.00828,-0.00194 -0.013887,0.00406 -0.00435,0.00466 -0.0088,0.017112 -0.012227,0.020195 -0.00573,0.00517 -0.00715,0.00121 -0.00758,1.37e-4 -0.00345,-0.00862 0.021446,-0.038365 0.022715,-0.040996 l 0.00482,-0.00398 0.051621,0.015 0.067695,0.018633 0.00939,-0.00158 0.00316,-0.00479 0.00332,-0.00594 -0.011602,-0.011367 -0.027949,-0.01293 -0.045039,-0.018125 -0.047891,-0.00107 -0.030762,0.014355 -0.018848,0.016289 -0.014785,0.022168 -0.00643,0.043731 0.0068,0.038652 0.014941,0.044785 0.013086,-0.018086 c -0.00162,-0.00637 2.14e-4,-0.00966 8e-5,-0.00598 l 5.47e-4,0.00432 0.057227,0.00201 0.00994,0.026055 -0.00451,0.017852 0.014199,0.02293 0.00666,-0.00168 0.00313,-0.014805 0.00863,-0.00629 0.026934,0.024844 -0.00322,0.01332 -0.00736,2.15e-4 -0.02627,0.050254 -0.00896,0.00867 -0.00607,0.00588 -0.00473,0.012676 0.0035,0.012305 0.046484,0.053477 0.018242,0.031699 0.0085,0.02834 -0.00402,0.011875 -0.019434,0.014727 -0.00109,0.00887 0.012656,-9.18e-4 0.032402,-0.00225 0.016328,0.022227 0.020566,0.014629 0.027539,0.00352 0.015938,0.010449 0.00932,-0.0085 0.00582,0.016758 0.012676,0.00252 0.017207,0.00449 0.025039,-0.00385 0.038594,0.023672 0.013809,0.019434 0.035605,0.016348 0.016328,0.0016 0.034824,0.023027 0.016172,0.017871 0.0225,0.00799 0.015195,-0.00855 0.0026,0.00877 -0.012266,0.00988 -0.020606,0.00297 3.32e-4,0.00873 0.034668,0.040098 0.040664,0.016035 0.065781,0.026601 0.055195,0.013555 0.025567,0.014609 0.00818,-2.15e-4 0.016738,0.015586 0.023906,0.00803 0.059844,0.03875 0.010781,0.00695 0.00186,0.00117 0.02543,0.00955 0.035703,0.0032 0.024375,0.00518 0.058398,0.00182 0.065176,0.028867 0.025684,0.01832 0.075059,-0.00891 0.071387,-0.028125 0.02918,-0.0075 0.00162,-4.3e-4 0.034219,-0.023594 0,1.17e-4 0.00475,0.010352 0.00297,0.00648 0.011055,0.024102 -0.019082,0.00275 -0.029883,0.038379 -0.024668,0.014043 0.00104,0.00361 0.00225,0.00799 -0.010371,-0.00191 -0.00535,-0.00723 -0.048223,0.018711 2.9246875,0 c 8.74e-4,-0.00622 0.00172,-0.012356 0.00172,-0.017617 0,-0.021391 -0.00581,-0.041906 0,-0.062481 0.0027,-0.00378 0.00894,-0.00773 0.013399,-0.00896 l 0.00322,-0.00516 c -0.020125,-0.020953 -0.075609,-0.067836 -0.1048437,-0.070703 -0.018485,-0.00185 -0.038937,0.00814 -0.058496,0.0073 -0.00973,-0.00848 -0.012205,-0.022599 -0.011758,-0.034863 0.00396,-0.00224 0.00739,-0.00503 0.010566,-0.00826 0.015319,-0.015608 0.059378,-0.030827 0.059199,-0.054199 -0.00207,-0.00755 -0.00754,-0.014649 -0.013379,-0.019766 0.00149,-0.00476 0.00462,-0.00973 0.00826,-0.013184 l 0.00115,-0.010859 c -0.0025,-0.00491 -0.00465,-0.00993 -0.00664,-0.015078 -0.00335,-0.00384 -0.01194,-0.00602 -0.016797,-0.00539 -0.027523,-0.026169 0.013645,-0.065827 -0.053574,-0.079414 l -0.00281,-0.00805 0.0034,-0.00705 c 0.00427,-0.00321 0.00941,-0.0065 0.01459,-0.00799 l 0.00324,-0.00545 c -0.00419,-0.00336 -0.00939,-0.0062 -0.014453,-0.00799 l 0,-0.00637 c 0.046375,-0.04097 0.078633,-0.00492 0.1188671,-0.01791 0.015459,-0.00496 0.044459,-0.039587 0.059649,-0.051582 0.029812,-0.023521 0.025454,-0.00577 0.040664,-0.051836 0.018614,0.0109 0.033963,0.027039 0.055215,0.033887 0.054936,0.017728 0.1129371,0.019272 0.164668,0.046406 0.00568,-0.00491 0.00589,-0.017185 0.00604,-0.024023 0.00122,-0.059485 -0.034498,-0.035405 -0.056856,-0.075879 -0.015697,-0.028409 -0.00345,-0.031619 -0.03623,-0.061719 -0.00756,-0.00697 -0.022356,-0.00702 -0.027402,-0.015078 5e-5,-0.00928 0.00845,-0.014958 0.012832,-0.022383 0.011148,-0.00377 0.027932,-4.68e-4 0.040195,-0.00164 0.00881,-8.16e-4 0.016201,-0.00418 0.023418,-0.00895 0.00702,-0.00461 0.014529,-0.00988 0.023418,-0.00799 0.00875,0.00184 0.040009,0.025195 0.045215,0.032969 0.00371,0.00554 0.00964,0.024813 0.011758,0.03207 0.00417,0.00337 0.00939,0.00618 0.014453,0.00797 0.00404,0.00775 0.00454,0.016592 0.00838,0.024297 0.019281,0.038402 0.067988,0.015317 0.1026367,0.017656 0.00978,-6.67e-4 0.021883,7.25e-4 0.03123,-0.00164 0.00805,-0.00199 0.013896,-0.0094 0.022227,-0.01082 0.014991,-0.00252 0.036594,0.019782 0.04418,0.031328 0.00956,0.014513 0.00723,0.029743 0.019434,0.046406 0.00963,8e-5 0.01752,-0.00456 0.026777,-0.00541 0.022008,-0.00207 0.069147,0.010264 0.084277,0.027773 0.00371,0.012104 -0.00675,0.028595 -0.00441,0.044512 0.015339,0.00601 0.038522,-0.00863 0.055215,-0.00801 0.010173,3.68e-4 0.019927,0.012308 0.028457,0.00988 0.0022,-0.00384 -0.00195,-0.084131 -0.004,-0.089297 -0.00346,-0.00882 -0.01048,-0.019737 -0.015019,-0.028496 l 0.00277,-0.00896 c 0.012234,-0.00546 0.022162,0.00302 0.032832,0.00705 0.00764,0.00288 0.047392,0.014703 0.053633,0.014375 0.00595,-2.69e-4 0.012922,-0.00367 0.019004,-0.00281 0.00765,0.00113 0.024228,0.019637 0.029434,0.025918 0.010402,0.00109 0.016524,-0.00253 0.025781,-0.00541 0.052895,-0.016484 0.028972,-0.020651 0.058008,-0.041953 0.01299,-0.00956 0.031837,-0.012801 0.046231,-0.01957 0.016514,-0.00775 0.027609,-0.0248 0.043008,-0.034824 0.00666,1.89e-4 0.01361,0.00101 0.02002,0.00281 0.025621,-0.00814 0.047375,-0.027437 0.072051,-0.037461 0.034192,-0.013936 0.1102225,-0.024988 0.1304688,-0.034863 0.016374,-0.00806 0.031579,-0.02959 0.051855,-0.023359 0.00808,0.00252 0.011664,0.0111 0.016152,0.016992 0.014373,0.018733 0.033278,0.026424 0.054082,0.03582 0.00357,4.28e-4 0.04391,-0.023033 0.051992,-0.026875 0.00521,-0.00609 0.0071,-0.014974 0.012812,-0.020488 0.020654,-0.020027 0.05521,-0.024897 0.073047,-0.049941 0.017091,-0.023989 0.015944,-0.077134 0.030059,-0.092871 0.013965,-0.015518 0.039652,-0.00635 0.049766,-0.02752 0.012482,-0.026089 -0.00709,-0.049452 -0.00561,-0.074238 -0.011497,-0.00956 -0.026359,-0.024664 -0.035039,-0.036758 -0.035528,-0.049664 -0.071594,-0.048677 -0.1178906,-0.079902 -0.056061,-0.037815 -0.041528,-0.0473 -0.1176563,-0.040312 l -0.0068,-0.00447 c -0.00397,-0.00818 0.00117,-0.033008 0.00117,-0.043828 0,-0.0093 0.00477,-0.046457 0.011191,-0.052519 0.021282,-0.020137 0.078373,-0.00495 0.1008789,-0.042891 0.010273,-0.01734 0.00333,-0.031179 0.00779,-0.04832 6.27e-4,-0.00231 0.00236,-0.00487 0.0034,-0.00705 0.00666,-0.013946 0.00851,-0.028635 0.014395,-0.041953 6.97e-4,-0.00153 0.00341,-0.00512 0.00459,-0.00637 0.026617,-0.028956 0.1681302,0.00365 0.2029492,-0.018633 0.036521,-0.023372 0.019659,-0.06816 0.034023,-0.099883 0.00619,-0.013677 0.015464,-0.012088 0.022969,-0.021465 0.010054,-0.012472 0.016251,-0.040049 0.030664,-0.048301 0.010003,-0.00573 0.093758,-0.01469 0.1088284,-0.034648 0.03111,-0.041229 0.03441,-0.1092997 0.07125,-0.1411524 0.03533,-0.00622 0.091938,2e-5 0.117832,-0.025918 l 0.001,-0.00611 c -0.0051,-0.01302 -0.0093,-0.02743 -0.016778,-0.039375 -0.04201,-0.087864 -0.039494,-0.097664 -0.016054,-0.1927149 0.0075,-0.030579 0.065243,-0.1226683 0.068593,-0.146289 0.0033,-0.023004 -0.00549,-0.053713 -0.00889,-0.076836 -0.01087,-0.072086 -0.012732,-0.061338 -0.069102,-0.098496 -0.01147,-0.00801 -0.020434,-0.015381 -0.026914,-0.028281 -0.01157,-0.023041 -0.038021,-0.126988 -0.062461,-0.1354687 l -0.00719,0.00352 c -0.01499,0.022824 -0.038556,0.069821 -0.066446,0.080351 -0.01532,0.0058 -0.045186,-0.012214 -0.061816,-0.014355 -0.01055,-0.00138 -0.021031,-1.43e-4 -0.031797,-0.00262 -0.023621,-0.00542 -0.046064,-0.023014 -0.070352,-0.025293 -0.00495,-4.78e-4 -0.00739,-9.51e-4 -0.011895,-0.00301 -0.00308,-0.0014 -0.00775,-0.003 -0.010371,-0.00496 -0.00911,-0.00672 -0.00839,-0.020072 -0.017227,-0.026602 -0.036043,-0.011407 -0.1516191,0.034636 -0.1986914,-0.018867 -0.019958,-0.022665 -0.064254,-0.050074 -0.090273,-0.067832 -0.00149,-0.00517 -0.00357,-0.010361 -0.00617,-0.015059 2.59e-4,-0.00974 0.00368,-0.021318 0.00545,-0.031113 0.00369,-0.020356 6.8e-4,-0.088875 -0.00545,-0.1091016 -0.00466,-0.015319 -0.019094,-0.033762 -0.027246,-0.048066 l 0.00277,-0.00893 c 0.016494,-0.00236 0.048261,0.015896 0.060703,-0.00541 0.00606,-0.010402 -9.7e-6,-0.018025 0.012383,-0.03207 0.016882,-8.16e-4 0.053268,0.00955 0.06584,-0.00352 l 0.00275,-0.00803 c -0.013934,-0.030131 -0.069033,-0.047147 -0.081406,-0.065273 0.00671,-0.051616 0.032395,-0.067305 0.00873,-0.1086133 l -2.1529882,0 0.017461,0.026934 6.25e-4,9.96e-4 -0.00287,0.00174 0.00926,0.01209 0.028477,0.00355 0.1606445,0.00178 0.063027,-0.00352 0.1071093,0.00176 0.022871,-0.00357 3.91e-4,0.00457 -3.91e-4,0.00883 -0.00891,0.041953 -0.00391,0.011621 0.00334,0.011601 0.00891,0.00711 0.011152,0.00271 0.022324,-0.011621 -0.025117,0.017813 -0.025078,0.00271 -0.054648,-0.00355 -0.0066,0.00453 0.031133,0.016894 0.013379,0.00268 0.018965,0.011601 0.00561,0.00982 0.00166,0.011602 0.03125,0.041914 0.00611,0.021426 0.00582,0.058633 0.010898,0.044902 -0.00891,0.024082 -0.00613,0.00893 -0.010059,0.023203 -0.00947,0.039238 -0.010039,0.023203 -0.00672,0.025 -0.00502,0.010703 -0.012812,0.017871 -0.00836,0.00713 -0.010625,0.016074 -0.01002,0.022305 -0.01916,0.029258 -0.00975,0.011035 -0.00346,0.00609 -0.00561,0.00359 -0.019375,0.015703 -0.00523,0.00643 -0.0099,0.00729 -0.018496,0.019414 -0.019453,0.018047 -0.015078,0.010859 -0.012793,0.0052 -0.00783,0.00717 -0.026738,0.016035 -0.017266,0.00781 -0.00396,0.00172 -0.020606,0.00564 -0.039043,0.017832 -0.023516,0.013613 -0.00725,0.00346 -0.00721,0.0026 -0.016738,0.013359 -0.010039,0.00357 -0.026035,0.018125 -0.017461,0.013086 -0.027324,0.014316 -0.011738,0.00266 -0.00949,0.00717 -0.011699,0.016953 -0.00893,0.024102 -0.023418,0.021406 -0.00893,0.00354 -0.026777,0.018769 -0.014512,0.016055 -0.015586,0.03123 -0.015059,0.049981 -0.019004,0.045488 -0.017832,0.029453 -0.021172,0.022324 -0.019551,0.0098 -0.025078,0.0027 -0.026816,-0.0027 -0.04125,0.016035 -0.012832,0 -0.031816,0.010742 -0.00834,0.00625 -0.041289,0.015156 -0.012266,0.00178 -0.013945,-0.00178 -0.019668,-0.00891 -0.035547,-0.026797 -0.012285,-0.015195 -0.017246,-0.013359 -0.022891,-0.00627 -0.030098,-0.00443 -0.022344,-0.00979 -0.014727,-8.99e-4 -0.02377,-0.00982 -0.011719,-0.016953 -0.00947,-0.019629 -0.00668,-0.00715 -0.00447,-0.010703 -0.00779,-0.00625 -0.018418,-0.0125 -0.037383,-0.0125 -0.032363,-0.016055 -0.011133,-0.00445 -0.025117,-0.0018 -0.023984,0.00355 -0.00891,0.00447 -0.056895,0.0125 -0.038476,-0.00182 -0.023457,-0.00979 -0.017832,-0.01248 -0.026211,-0.033027 -0.02457,-0.020547 -0.03625,-0.013359 -0.010039,-0.00535 -0.00727,-0.00717 -0.021758,-0.010684 -0.012422,-0.00332 -0.019629,0.00785 -0.019062,-0.00443 -0.00125,-3.12e-4 -0.00346,6.64e-4 -0.031875,0.00572 -0.00912,0.00164 -0.011426,0.00205 -3.32e-4,-0.012656 -2e-5,-0.00127 0.012422,-0.010527 -0.013887,-0.015898 -0.010469,-0.00191 -0.013223,0.00432 -0.015781,0.00521 -0.012715,-0.00127 -0.017363,-0.011484 -0.00641,-0.010566 -0.00318,-0.00518 3.12e-4,-0.0023 3.91e-4,-0.00238 0.00184,-0.012266 -0.00383,-0.00578 -0.00578,9.96e-4 -0.015605,0.00275 -9.57e-4,1.56e-4 -0.00678,0.00115 -0.023223,-0.013242 -0.00639,-0.00365 0.00945,-0.010469 0.023535,-0.00205 0.011992,-0.015 0.015351,-0.00596 0.00926,-0.00357 0.00355,-0.00145 0.010566,0.00699 0.013027,0.00863 0.00273,-0.00408 0.00527,-0.00789 0.00215,-0.015879 0.00941,-0.00518 0.00508,-0.00289 0.020664,-0.042285 0.014883,-0.0048 0.032754,-0.041152 0.015664,-0.00258 0.023223,-0.032051 0.00834,-0.02666 0.012148,-0.010488 0.011445,-0.00992 0.00439,-0.00379 -0.016055,-0.00918 -0.053672,-0.00648 -0.00803,-9.37e-4 -0.00695,-0.040254 0.00303,-0.015547 9.76e-4,-0.00508 -0.018867,0.00266 -9.77e-4,1.17e-4 -0.00336,4.49e-4 -7.03e-4,1.17e-4 -0.00127,1.76e-4 -2.34e-4,0 -4e-5,-1.76e-4 -0.00348,-0.00982 -4.3e-4,-0.00125 -1.17e-4,-3.32e-4 6e-5,0 0.047871,-0.00707 0.00285,-8.98e-4 0.00758,-0.00227 0.00799,-0.00971 -0.01498,-0.029805 0.00158,-0.027188 0.017754,-0.010996 0.00441,-0.00277 0.00875,-0.011211 0.00756,-0.014375 0.00186,-0.0035 0.00111,-0.014629 -0.00967,-0.02625 -0.015469,-0.018047 -0.024375,-0.043516 -0.00447,-0.028594 -0.00781,-0.012285 -0.00963,-0.033145 -0.00156,-0.00541 -0.00111,-0.00375 -0.00713,-0.011055 -0.00176,-0.00277 -4.88e-4,-7.03e-4 -0.00336,-0.00271 -0.013535,-0.01084 0.00545,-0.018047 1.37e-4,-4.49e-4 -2.34e-4,-4.49e-4 -0.029941,-0.063457 0.00266,-0.015527 -0.00559,-0.01168 0.00346,-0.013301 -0.00731,-0.038049 -0.7991211,0 z m 2.057168,0.047148 -0.013398,0.017832 -0.00891,0.00627 -0.011172,0.00268 -0.028457,0.015176 -0.031816,0.00979 -0.037383,0.0027 -0.023398,0.00443 -0.034609,0.024141 -0.021738,0.023184 -0.00891,0.00625 -0.044082,0.047285 -0.017285,0.011602 -0.035703,0.00535 -0.029004,0.00896 -0.00613,0.00979 -0.00949,0.022305 -0.012266,0.01875 -0.00836,0.00623 -0.00611,0.00893 -0.0048,0.013184 3.12e-4,0.023418 -0.00334,0.013359 -0.00502,0.010723 -0.024512,0.020508 -0.018438,0.00982 -0.025684,0.01873 -0.01002,0.00445 -0.023457,0.00359 -0.019492,0.00895 -0.016172,0.014219 -0.059707,0.042852 -0.038496,0.019648 -0.073613,0.042832 -0.016738,0.01248 -0.018379,0.00984 -0.068633,0.049942 -0.083672,0.046426 -0.011152,0.0027 -0.025664,0.01873 -0.00723,0.00805 -0.010625,0.020508 -0.014492,0.016055 -0.061953,0.036582 -0.00441,0.00805 0.00441,0.00982 0.00674,0.00801 0.00277,0.011602 0.00109,0.011621 -0.00223,0.014277 -0.00113,0.026738 0.00113,0.012519 0.00779,0.019629 0.012285,0.016953 0.00838,0.00713 0.00947,0.00627 0.010059,0.00268 0.023418,-0.00354 0.019512,-0.00982 0.011133,-0.0027 0.038496,-0.0018 0.047422,0.017852 0.02625,0.00627 0.060215,0.021387 0.054121,0.025898 0.050176,0.027656 0.054668,0.048184 0.013984,0.016094 0.010019,0.00531 0.055781,0.05 0.013945,0.016074 0.022852,0.00893 0.025664,0 0.053008,-0.017852 0.1243946,-0.026797 0.025645,-0.010684 0.00895,-0.00627 0.00947,-0.022305 0.00725,-0.025879 0.03457,-0.076738 -0.00109,-0.011602 -0.027324,-0.058027 -0.00111,-0.011582 0.00221,-0.014297 0.037969,-0.03748 0.016152,-0.014238 0.00947,-0.00447 0.042402,0.00354 0.02625,-0.00443 0.00668,-0.00357 0.018398,-0.028555 0.028984,-0.028555 0.1104492,-0.062461 0.054141,-0.016094 0.066934,0.00178 0.019531,-0.00889 0.045742,-0.026777 0.017285,-0.01252 0.00609,-0.00979 0.014531,-0.033047 0.031816,-0.04207 0.019531,-0.030195 0.018945,-0.038789 0.013945,-0.022793 0.016191,-0.03209 0.014785,-0.095566 -0.00313,-0.040996 -0.01166,-0.029492 -0.012832,-0.016894 -0.00713,-0.010195 -0.012422,-0.027305 -0.00561,-0.00674 -0.00109,-0.00129 -9.76e-4,-0.00182 -0.0085,-0.013379 -0.00838,-0.00711 -0.039609,-0.00805 -0.04125,-0.0018 -0.024414,-0.00441 -0.015195,-0.00271 -0.014531,-0.016035 -0.00943,-0.00539 -0.070312,-0.00979 -0.04125,-0.00896 -0.011758,-0.00529 -0.015059,-0.00182 -0.024551,-0.00799 -0.022832,-0.00984 -0.025098,-0.033926 z m -1.0850781,0.4383204 -0.00666,0.0016 -0.00459,0.028809 -0.012402,0.014922 1.76e-4,0.00885 0.00844,0.005 0.027227,-0.013516 0.036504,-0.018066 0.013535,-0.0025 0.00283,-0.0052 -0.00385,-0.00578 -0.039687,0.00312 -0.011973,-0.00959 -0.00953,-0.00766 -2e-5,0 z m -2.1990625,2.0072851 -0.012773,6.25e-4 -0.021523,0.00107 -0.0225,0.00107 -0.013437,6.06e-4 -0.062129,0.021484 -0.050918,0.026055 -0.00348,0.00184 -0.019766,0.00398 -0.043984,0.00898 -0.011934,0.00246 -0.028848,0.018691 -0.013398,0.016719 -0.00662,0.019355 0.00568,0.030742 0.018555,0.038184 -0.00375,0.00566 -0.00359,0.00553 -0.00309,0.00469 0.00375,0.015957 6.44e-4,0.00293 0.00184,0.00805 0.011562,-0.00773 0.00207,-0.022188 0.013574,0.00684 0.012578,2.54e-4 0.032637,-0.034336 8e-5,0 0.00168,-2.15e-4 0.00932,-9.57e-4 0.0098,-0.014375 0.060918,-0.011973 0.011465,-0.00998 0.034023,-5.66e-4 0.012832,0.00762 0.016387,0.00232 0.01416,-0.00305 0.023613,0.00381 0.00338,0.00742 5.08e-4,0.00127 0.011445,0.025215 0.02168,0.02498 0.00773,0.026895 2.93e-4,0.028652 -0.00695,0.03043 0.00684,0.023184 0.00611,0.00572 0.0175,-0.00654 0.00232,0.023477 0.015859,0.028027 0.014668,0.035527 0.0015,0.020508 0.00623,0.00787 0.00438,-0.00172 0.00219,-7.81e-4 0.00371,0.00295 0.012988,0.01043 0.00137,2.73e-4 0.013555,0.00287 0.032344,-0.0034 0.012715,0.00461 0.021934,-0.00654 0.060391,0.016836 0.03459,0.016426 0.019082,0.029082 0.00225,0.00342 0.4155078,0 0.00318,-0.00779 0.015332,-0.00754 6.45e-4,-3.52e-4 0.00693,-0.012754 0.018691,0.00602 -0.012539,0.022422 0.00783,0 0.013828,-0.014707 0.00424,-0.00439 0.00455,0.011836 -1.17e-4,5.27e-4 -0.00178,0.00674 0.1435938,0 -0.025762,-0.01041 -0.030508,-0.012285 -0.00818,-0.00934 -0.010605,-0.00186 -0.020508,0.00508 -0.018027,0.012324 -0.00523,-0.00385 -0.0027,-0.011348 0.023691,-0.020605 -0.011133,-0.00188 -0.012773,0.014395 -0.011816,4.3e-4 -0.00775,0.0068 -0.0073,-0.00332 -0.0023,-0.037207 -2e-5,-9.57e-4 -0.0051,-0.00117 -8.4e-4,-1.76e-4 -6.64e-4,7.03e-4 -0.015059,0.015977 -0.00447,-0.00598 -0.00787,-0.010547 -10e-5,-2e-5 -0.00873,-4.49e-4 -0.011582,0.0092 -0.031387,0.00922 -0.033887,0.00107 -0.039629,-0.013398 -0.010996,-0.0085 -0.016328,-0.012637 -0.062715,-0.019199 -0.034512,-0.03707 -0.022676,-0.035234 -0.039434,-0.027305 -0.013125,-0.017969 -0.015078,-0.00684 -0.014922,-0.020977 -0.017246,-0.032207 -0.016797,0.00643 -0.067656,-0.029883 -0.049355,-0.034277 -0.014902,-0.006 -0.017363,-0.00687 -0.018418,-0.016953 -0.064824,-0.031387 -0.024453,-0.02043 -0.013379,-0.00182 -0.010859,0.00785 -0.00783,-0.012207 0.010254,-0.00412 -0.00604,-0.025137 -0.014707,0.00602 -4.1e-4,0.00967 -0.0073,0.0017 -0.015684,-0.017129 -0.00908,-0.0099 -0.025098,-0.018105 0.00525,-0.017168 z m -0.1613086,0.178125 -0.013496,0.01293 -0.013144,0.023301 -0.022227,0.018574 0.00766,0.00553 0.034922,-0.014551 0.040488,-0.00455 0.033047,0.012773 0.00199,-0.00598 -0.034199,-0.022969 -0.02459,-0.023262 -0.010449,-0.0018 z m -0.144668,0.074922 -0.0355273,0.017363 -0.0390235,0.00957 0.002578,0.013301 2.15e-4,0.00135 -0.0129883,0.042383 -0.0544726,-0.010957 -0.0375586,0.00223 -0.004531,0.0017 -0.003691,0.00133 -0.001426,5.47e-4 -0.0333398,0.012109 -0.073125,0.018496 -0.0332813,0.016152 -0.0153906,0.019727 -0.0204101,0.040586 -0.004375,0.019277 0.002871,0.032207 0.005215,0.016836 0.2215039,0 0.0276172,-0.02582 0.024043,0.0093 0.005469,0.00713 -1.37e-4,0.00939 0.3968945,0 -0.0023,-0.00117 -0.017969,-0.04709 -0.015879,-0.028008 -0.010605,-0.00553 -0.00777,-0.011465 -0.011426,-0.028984 -0.020273,-0.025684 -0.082539,0.00531 -0.014902,-0.00371 -0.02709,0.00617 -0.037402,-0.029512 -0.023242,-0.00709 -0.0782032,0.020684 -0.006875,-0.00561 -0.017832,-0.00295 -0.003184,-0.023379 0.004395,-0.018555 0.007969,-0.011894 0.003203,-0.00473 0.0220118,-0.00311 0.0470703,0.019727 0.00105,4.49e-4 1.37e-4,-2.73e-4 0.00457,-0.012402 -0.00559,-0.00939 -0.018789,-0.00637 -0.00443,-0.00148 0.00143,-0.00246 1.95e-4,-3.91e-4 -0.00285,-0.015313 z m 0.2471094,0.027695 -0.00174,0.013301 0.018672,0.026953 0.012676,0.018223 0.019238,0.039726 0.014844,8.59e-4 0.00404,-0.00973 -0.00576,-0.015957 -0.015352,-0.014824 -0.00898,-0.021777 -0.00348,-0.032188 -0.00535,-0.0042 -0.028809,-3.91e-4 z m 0.5826172,0.010469 -0.01291,0.00213 -0.00193,0.00965 0.015371,0.015606 0.041035,0.033223 0.051484,0.026406 0.00352,0.0048 0.02793,-0.00312 0.032813,-0.012852 0.00437,-0.00313 -3.32e-4,-0.00957 -0.1613476,-0.063145 z m -0.6199414,0.018184 -0.04502,0.0017 -0.012305,0.00633 -7.62e-4,0.0016 -0.00201,0.00439 0.00314,0.0042 0.00545,0.00729 0.031523,-0.00711 0.01959,-0.00955 3.91e-4,-0.00885 z m -0.092949,0.02082 -0.012481,0.00277 -0.00221,0.00623 -4.1e-4,0.00115 0.00527,0.00764 1.95e-4,2.73e-4 0.010371,0.00104 0.027266,-0.0027 -0.028008,-0.016406 z m 0.8592382,0.061406 -0.00951,0.00402 -0.00842,0.012734 0.011973,0.00482 0.030312,4.1e-4 5.47e-4,-0.00516 -0.024902,-0.016836 z" id="rect6" inkscape:connector-curvature="0"/>
  <path style="fill:#21468b;stroke:none;stroke-opacity:1" d="m 0.6473438,6.0040938 0.002461,0.00793 0.0242188,0.029766 0.0393164,0.023379 0.0137109,-0.00107 0.00541,-4.3e-4 0.0558594,-0.00596 0.011582,-0.00566 0.00252,-0.01043 0.0134961,-0.011582 0.0203516,-0.00812 0.0133008,1.95e-4 0.0192773,-0.018008 -0.2215039,0 z m 0.2784961,0 -2.73e-4,0.017148 0.005957,0.00426 0.008496,0.00617 0.0461914,0.014199 0.004668,0.00141 0.0175781,-0.00285 0.025098,0.018125 0.013906,0.03543 0.015527,0.018457 1.76e-4,0.022129 0.00783,0.03125 0.00604,0.00346 0.019727,0.013223 0.024453,0.00332 0.00893,0.00123 0.00764,-0.011348 0.012246,0.012773 0.013965,-0.020352 0.00145,0.00355 0.013613,0.024551 0.021289,0.018652 0.030684,0.027109 0.063965,-0.020859 0.040859,-0.01332 0.035996,-0.021836 0.013184,-0.0027 0.017012,0.00555 0.00908,0.00303 0.041074,-0.045605 0.025371,-0.011953 0.00988,-0.012109 -2.74e-4,-0.00742 0.00836,-0.012773 0.00135,-0.022832 0.00891,-0.017969 -0.018945,-0.00336 -0.04541,-0.00812 -0.011055,-0.013652 -0.05043,-0.025371 -0.045937,-0.00486 -0.01127,-0.00572 -0.3968945,0 z m 0.6917773,0 0.00131,0.00201 0.016816,0.017051 0.031191,0.00398 0.012129,0.00912 0.029004,0.00635 0.022832,0.019102 0.00977,0.00225 0.00139,2.54e-4 0.051289,0.032031 0.030469,0.00855 0.00199,-1.56e-4 0.099492,-0.00912 0.025996,-0.016309 0.036523,-0.014648 0.017363,-0.00695 0.014219,-0.019824 0.01373,-0.033691 -0.4155078,0 z m 0.4477539,0 -0.00215,0.00385 0.00525,0.00117 0.00473,-0.00502 -0.00783,0 z m 0.028555,0 -0.00311,0.011777 -0.031699,0.066348 -0.018457,0.02125 -0.02916,0.011953 -0.016602,0.012871 -0.024004,0.00828 -0.012891,0.010723 -0.053496,0.0099 -0.049356,0.021504 -0.02125,0.00365 -0.038398,-0.00312 -0.04502,-0.00137 -0.026113,-0.00723 -0.010742,0.00922 -0.025977,-0.00492 -0.00395,-0.00168 -0.058926,-0.025547 -0.043731,-0.026309 -0.018574,-0.00307 -0.046074,0.00975 -0.018652,0.020234 -0.00115,0.00727 -0.00352,0.021152 0.00568,0.01375 0.015664,0.00455 0.011426,0.011426 0.011445,0.03041 0.028203,6.06e-4 0.021934,5.27e-4 0.01791,0.00674 0.014316,-0.0034 0.030078,-0.00707 -0.00145,0.01002 -0.00785,0.00381 0.010039,0.021445 -0.00707,-2.73e-4 -0.039453,-0.0024 -0.076348,0.00707 -0.014824,-0.00164 -0.028105,-0.021738 -0.025371,-0.00869 -0.033125,-1.76e-4 -0.08709,0.053926 -0.016445,-0.00457 -0.040781,0.012207 -0.012402,0.00234 -0.010684,0.00922 -0.0015,0.00631 -0.00295,0.012207 0.00582,0.016016 0.011367,0.00904 0.00871,1.17e-4 0.00512,0 0.013027,0.0076 0.03082,0.018125 0.019375,0.044902 0.032734,0.00828 0.01127,0.011719 0.014746,0.015215 0.0043,0.015273 0.018047,0.023027 0.00666,0.00846 0.1000976,0.022031 0.023809,-0.013379 0.00912,0.0093 0.024473,0.00502 0.015215,-0.00641 0.050938,0.025313 0.00766,0.0093 0.029238,0.015898 0.010957,-0.0018 0.00998,-0.011973 0.00908,-0.010762 0.045332,0.016934 0.013867,0.00518 0.00562,0.00203 0.016172,0.022324 0.00965,0.00447 0.01207,0.00582 0.0083,0.00723 0.010156,0.00893 0.0065,0.00568 0.00187,0.00461 0.00457,0.011387 -1.17e-4,0.0017 -0.00145,0.015957 0.016601,0.035508 0.00318,0.048379 -0.02043,0.0051 -0.025801,0.018555 -0.00627,-0.012324 -0.01752,0.00357 -0.00504,-0.00383 -0.00328,-0.00254 -0.010977,3.71e-4 -0.015605,0.014004 -0.00574,0.0051 -0.00689,-0.00855 -0.00336,0.0015 -0.012481,0.00545 -10e-5,0 -0.016562,0.00818 -0.018613,6.45e-4 -0.00559,1.95e-4 -6.64e-4,-0.00246 -0.0035,-0.012109 -0.020508,0.00215 -0.00834,-0.00709 -0.01166,0.00201 -0.011504,0.00979 -0.019844,0.016953 -0.011992,0.00479 -0.018418,0.00732 -0.00695,0.00982 -0.021406,-0.00297 -0.022754,-0.019004 -0.016973,-0.00229 -0.042695,-0.024238 -0.022461,-0.032168 -0.045703,-0.043203 -0.015977,-0.033184 0.00687,-0.013594 -0.020996,-0.050566 -0.039024,-0.023574 -0.013652,-0.0083 -0.023613,-0.020449 -0.01707,-0.00375 -0.051797,-0.027461 -0.030527,-0.0091 -0.042988,0.00973 -0.028984,-0.044453 -0.00988,-0.0085 -0.00809,3.91e-4 -0.028652,0.00107 -0.01793,0.011074 -0.029629,-0.00475 -0.024238,0.00236 -0.021816,0.00219 L 0.9877519,6.4706177 0.96283,6.4484498 c 0,0 -0.0290931,-0.00553 -0.0387891,-0.00414 -0.00969,0.00137 -0.0221418,0.015215 -0.0276758,0.015215 -0.00553,0 -0.0221603,0.00139 -0.0276953,0.00139 -0.00553,0 -0.0304425,10e-6 -0.0359765,-0.00275 -0.00553,-0.00277 -0.0235537,-0.00414 -0.0360157,-0.00414 -0.012462,0 -0.0166071,0.00135 -0.0235351,0.00275 -0.00692,0.00137 -0.0110676,0.016578 -0.0166016,0.019355 -0.00553,0.00278 -0.0110742,0.024935 -0.0110742,0.030469 0,0.00553 -0.0152344,0.023535 -0.0152344,0.023535 0,1e-7 -0.0180076,0.013851 -0.0263086,0.015234 -0.00831,0.00138 -0.0193906,-0.00414 -0.0263086,-0.011074 C 0.6706951,6.5273596 0.655473,6.5010651 0.65408,6.4955201 0.6527,6.4899801 0.6374589,6.4664578 0.6374589,6.4581568 c 0,-0.00831 -0.0152177,-0.023544 -0.0207617,-0.027695 -0.00553,-0.00416 -0.0290781,-0.023528 -0.0359961,-0.024922 -0.00694,-0.00137 -0.0110703,-0.017982 -0.0179883,-0.019375 -0.00692,-0.00138 -0.0124609,-0.02078 -0.0124609,-0.033242 0,-0.012452 -0.004492,-0.026074 -0.004492,-0.026074 l -0.0126172,-0.013535 -0.009785,-0.00355 -0.0283594,-0.010254 -0.0346093,8.01e-4 -0.0187305,-0.0073 -0.0197656,0.00385 -0.0358789,0.02 -0.0369922,0.029531 -0.0182422,0.00371 -0.0471289,0.030469 -0.0201172,0.013027 -0.044043,0.035801 -0.0516211,0.029629 -0.0170703,0.029355 -0.001445,0.033164 0.0211524,0.012344 0.0408398,0.039258 0.0537109,0.033652 0.042793,0.051738 0.0314063,0.061152 0.0435937,0.037031 0.007559,0.00262 0.0117774,0.00391 0.0321289,0.028731 0.002832,-6.25e-4 0.0167383,-0.00365 0.001484,-3.13e-4 0.003965,-0.00191 0.0174609,-0.00818 0.00957,-0.00445 0.007246,0.014355 0.0154688,0.0015 0.0277929,-0.0027 0.0103907,0.00322 0.0179101,-0.012461 0.0138477,-0.018242 0.0159375,-0.00238 0.004492,-7.42e-4 9.76e-4,-0.011016 0.0128516,-0.00941 0.0141016,0.00383 0.004824,-0.00826 0.0276367,-0.00562 0.008301,-0.011309 0.0110156,0.016426 -0.009434,0.020215 -0.0111523,-0.00248 -0.005176,0.00471 -0.006836,0.00607 0.0372851,0.030527 10e-5,8e-5 0.0240429,0.019726 0.008613,0.00707 0.005938,0.011484 0.0100391,0.019473 6.84e-4,0.00707 6.25e-4,0.00604 0.0123047,0.014199 0.0370312,0.00877 0.0100586,-0.00557 0.0275781,0.0092 0.015586,0.00527 0.002617,0.010156 0.021875,0.014551 0.0402929,0.039004 0.006328,0.00613 0.0113477,-0.00174 0.0761328,-0.01209 0.0446289,-0.020137 0.00684,0.00631 0.01084,8.4e-4 0.026719,0.00213 0.025351,-0.06498 0.013887,-0.018906 0.00166,-0.00758 0.0033,-0.015449 0.014941,-0.030703 -0.0066,-0.018125 0.009,-0.013535 0.038027,-0.023574 0.032168,-0.0027 0.017969,-0.010957 0.00738,4.49e-4 0.060664,0.050566 0.021894,0.015371 0.025313,0.00936 0.00875,-0.00188 0.025215,0.02707 0.015293,0.036152 0.039766,0.020156 0.082031,0.020254 0.020332,0.0125 0.02668,0.00998 0.022832,0.00145 0.00955,-0.00404 0.020801,-0.00881 0.022637,-0.00225 0.021348,-0.019219 0.021113,-0.00443 0.01125,0.00627 0.00918,0.010664 0.038711,-0.00355 0.018223,0.012422 0.017207,0.035625 -0.00484,0.028809 0.0066,0.020898 c 0.025721,-0.00576 0.1648459,-0.012646 0.1802148,0.00486 0.00326,0.012273 0.00511,0.032348 0.016621,0.039336 0.027692,0.016821 0.135129,0.022515 0.1628906,0.00166 0.013667,-0.010233 0.00852,-0.030657 0.01959,-0.042891 -6.17e-4,-0.00259 -0.00176,-0.00944 -0.00279,-0.011543 -0.00396,-0.00812 -0.014176,-0.015821 -0.019004,-0.024024 -0.00704,-0.011895 -0.011292,-0.026404 -0.018379,-0.038418 -0.011547,-0.01948 -0.037961,-0.03723 -0.042441,-0.059805 -0.00546,-0.027632 0.020687,-0.04355 0.025625,-0.066016 -0.0019,-0.01504 -0.011092,-0.028352 -0.02666,-0.031348 l -0.00459,-0.00965 c 0.00472,-0.00758 0.012337,-0.010391 0.019922,-0.014004 0.044056,-0.020933 0.090872,-0.034719 0.1335742,-0.059316 0.011676,-0.00676 0.02024,-0.021317 0.032812,-0.024961 0.00752,-0.0022 0.016786,-0.00215 0.02459,-0.0026 0.013697,-8.16e-4 0.090138,-0.012033 0.093672,-0.010859 l 0.00781,0.00729 c 0.00506,0.010024 -0.00796,0.064339 -0.012227,0.076563 -0.00264,0.00752 -0.00783,0.01355 -0.010625,0.020508 -0.010979,0.027383 -0.00506,0.05814 0.00779,0.083184 0.020724,0.011527 0.070499,-0.025859 0.093672,-0.024297 0.00483,3.29e-4 0.012266,0.00327 0.016855,0.00502 0.012701,0.00492 0.02849,0.014197 0.041152,0.017363 0.026388,0.00661 0.019647,-0.00471 0.054785,0.013418 0.012452,0.00157 0.037091,-0.013244 0.053476,-0.015254 l 0.0034,-0.00971 c -0.00688,-0.00885 -0.00446,-0.022012 -0.00898,-0.032285 l 0.00334,-0.00705 c 0.00654,-0.013826 0.027063,-0.01604 0.03627,-0.026641 0.014802,-0.016902 0.015995,-0.04418 0.034629,-0.058164 0.0052,-0.00388 0.013817,-0.00553 0.01957,-0.00895 0.010452,-0.00624 0.019597,-0.021239 0.028457,-0.031113 0.011447,-0.00865 0.026165,-0.011647 0.036836,-0.019551 0.011298,-0.00841 0.0153,-0.025139 0.026231,-0.034863 0.034321,-0.030569 0.099105,-0.00634 0.1304297,0.021426 0.01299,0.011547 0.023603,0.027036 0.039609,0.035586 0.00408,0.013517 -0.00494,0.026097 -0.00439,0.039336 3.48e-4,0.00844 0.00458,0.014318 0.00279,0.024063 -0.00454,0.00584 -0.011135,0.00917 -0.015625,0.014355 -0.011507,0.013299 -0.013254,0.069522 -0.0084,0.086484 0.00247,0.00847 0.00995,0.020035 0.013867,0.028496 -0.031126,0.00194 -0.050169,-0.020682 -0.07584,-0.032031 -0.011497,-0.00507 -0.023443,-0.00124 -0.034492,-0.00543 l -0.00736,0.00801 c -0.00257,0.013627 -0.00285,0.027424 -0.00322,0.04125 0.021023,0.043349 0.1135429,0.015314 0.1477148,0.00967 0.014742,-0.00246 0.059718,-0.00675 0.073613,-0.00518 0.038671,0.00434 0.054143,0.049664 0.080879,0.056055 0.00262,-5.57e-4 0.010164,-0.00163 0.012344,-0.00258 0.00938,-0.00401 0.014761,-0.015952 0.022246,-0.022383 0.030031,-0.02583 0.1106555,-0.094614 0.125039,-0.1284179 0.025681,-0.060231 -0.016321,-0.081978 0.052441,-0.1312305 l 0.01166,0.00164 c 0.013318,0.011925 0.00381,0.029866 0.025762,0.045703 0.013448,0.00364 0.025837,-0.00386 0.038438,0.0026 0.016782,0.00865 0.052438,0.09658 0.062422,0.117832 -0.00205,0.044653 -0.054079,0.072001 -0.055801,0.1158985 -0.00207,0.052378 0.093384,0.1194671 0.1132617,0.1760156 0.00773,0.021948 4e-5,0.068753 0.021797,0.081992 0.064253,0.039039 0.083546,-0.027202 0.1346094,0.0066 0.016105,0.010671 0.039703,0.00968 0.05334,0.026387 0.00727,0.016115 -0.020758,0.1042615 -0.024023,0.1293555 l 0.00457,0.00986 c 0.01287,0.010034 0.030174,0.0093 0.045215,0.00545 0.014592,-0.00374 0.028018,-0.011229 0.043438,-0.011777 0.03686,-0.00143 0.067181,0.022799 0.1160157,0.015293 0.028717,-0.00442 0.032951,-0.036443 0.066426,-0.032969 0.019968,0.00204 0.042368,0.01299 0.063301,0.019102 0.01088,0.00292 0.023528,0.00382 0.034199,-0.00143 0.01077,-0.00534 0.016412,-0.021325 0.027969,-0.026641 0.010641,-0.00489 0.02392,-0.00217 0.035039,-0.00541 0.012024,-0.00351 0.039125,-0.013407 0.050254,-0.018613 0.016533,-0.00778 0.02364,-0.027819 0.036211,-0.039336 0.018853,-0.00638 0.055907,-0.00138 0.070371,0.01248 0.007,0.00669 0.011888,0.018414 0.018418,0.025899 0.0073,0.00833 0.016379,0.01328 0.025059,0.01957 0.029683,0.021501 0.035005,0.051875 0.03373,0.086465 -8.26e-4,0.022377 -0.00727,0.062955 -3.12e-4,0.082246 0.011308,0.014563 0.1436353,0.052072 0.1718946,0.066914 0.034072,0.017937 0.011077,0.051799 0.056855,0.061504 0.015677,0.00331 0.03084,-0.00685 0.045801,-0.00801 0.012701,-9.95e-4 0.027534,0.00439 0.040195,0.00189 0.030618,-0.00598 0.039299,-0.02929 0.076855,-0.011562 0.073231,0.0346 0.036045,0.042613 0.054629,0.075859 0.00494,0.00883 0.014979,0.01568 0.021797,0.023105 0.02583,-0.00282 0.047465,-0.017138 0.072012,-0.024961 0.016763,0.00107 0.024535,0.015886 0.034648,0.026816 0.00645,0.00698 0.016139,0.014635 0.019414,0.024063 0.00177,0.00515 -1.92e-4,0.01093 -0.00201,0.015469 -0.016285,0.040851 -0.07684,0.053195 -0.076621,0.090801 0.00709,0.027612 0.038938,0.02626 0.049609,0.039101 l 0.00281,0.01084 c -0.00714,0.040921 -0.050472,0.01591 -0.071445,0.021445 l -0.00721,0.00801 c 0.00576,0.011278 0.011123,0.023484 0.010625,0.036504 l -0.0015,0.010059 c -0.00146,0.010073 -0.00753,0.018816 -0.00912,0.029297 -0.00127,0.00823 7.46e-4,0.018035 -0.00104,0.025918 -0.00127,0.00568 -0.0073,0.015378 -0.012383,0.018613 l -0.011641,0.00188 c -0.00887,-0.00593 -0.018918,-0.014803 -0.030195,-0.014375 -0.011726,0.01719 0.00236,0.034316 -0.023965,0.065293 -0.00537,0.019589 0.00914,0.026029 0.022949,0.034629 l 0.00441,0.00891 c -1.89e-4,0.014493 -0.00846,0.025401 -0.010586,0.039336 -0.00131,0.00859 5.66e-4,0.016599 5.66e-4,0.025 0,0.00364 -0.01469,0.049326 -0.015606,0.050898 -0.018923,0.031305 -0.099988,0.053031 -0.081016,0.1034375 0.020386,0.019261 0.040008,-0.00372 0.057617,-0.011563 l 0.011016,0.00449 c 0.014493,0.02372 -0.00355,0.042531 -0.016641,0.061484 -0.029056,0.042125 -0.027143,0.1099359 -0.084238,0.094746 l -0.00559,0.00406 c -0.00391,0.00285 -0.00234,9.84e-4 -0.00449,0.00564 -0.00674,0.014593 -0.0057,0.031566 -0.01334,0.046328 -0.00731,0.014065 -0.021124,0.020787 -0.025215,0.0375 -0.023671,-0.00252 -0.048191,0.00453 -0.067422,0.016953 -0.00205,0.014732 -0.00189,0.038784 -0.019004,0.044766 -0.011228,0.042981 -0.00396,0.064538 0.013399,0.103418 0.020883,0.046793 0.072317,0.053396 0.1098828,0.080351 -0.00148,0.00788 -0.00436,0.016208 -0.00842,0.023086 -0.00115,0.019838 0.017756,0.03446 0.015606,0.053692 -0.00259,0.022874 -0.02198,0.044873 -0.027266,0.068594 l 0.013418,0.00895 c 0.027443,0.0023 0.026431,-0.02368 0.060234,-0.018613 l 0.00602,0.00873 0.011211,0.00445 0.010566,-0.00262 c 0.00459,-0.00588 0.00999,-0.01105 0.015059,-0.016465 0.014941,-0.015966 0.025388,-0.050344 0.049785,-0.052285 l 0.00779,0.00729 c 0.00143,0.010173 0.00591,0.021895 0.015039,0.027559 0.037238,-2.59e-4 0.033464,0.026609 0.056289,0.043789 0.020704,0.0019 0.047674,-0.022361 0.066387,-0.031309 l 0.01002,0.00354 c -1.99e-4,0.00666 0.0016,0.015623 0.005,0.021465 0.018435,0.0069 0.053559,-0.01657 0.06418,-0.031133 0.00604,-5.57e-4 0.012555,4e-4 0.018418,0.00162 0.00489,0.011099 0.00244,0.026951 0,0.038418 l 0.00955,0.00832 c 0.034341,0.00325 0.10737,-0.029971 0.1271484,-0.027871 0.020107,0.00212 0.032195,0.023426 0.052422,0.024024 0.00741,2.09e-4 0.015129,-0.00394 0.022246,-0.00447 0.00731,-5.47e-4 0.014639,-9.24e-4 0.021816,-0.00254 0.026398,-0.06496 -0.031996,-0.081876 -0.066875,-0.1241601 -0.00252,-0.00689 0.00313,-0.016027 0.00604,-0.022109 l 0.00678,-0.00447 0.0084,0 c 0.031027,0.020256 0.041809,0.00946 0.056113,-0.021426 0.020983,-0.04532 -0.013655,-0.069535 -0.00648,-0.099238 0.018803,-0.016802 0.049054,-0.037069 0.07584,-0.032988 0.00379,0.00293 0.0074,0.0072 0.00939,0.011543 l 0.00902,0.00285 c 0.030638,-0.00651 0.019071,-0.041336 0.03002,-0.057969 0.00321,-0.00487 0.012288,-0.01189 0.016797,-0.01625 0.00563,-0.014732 -0.024459,-0.050918 -0.026211,-0.069473 -0.00277,-0.028777 0.012951,-0.044362 0.020586,-0.068809 l -0.00221,-0.00709 c -0.012442,-0.0097 -0.037798,-0.00535 -0.054043,-0.011543 -5.97e-4,-0.00518 -0.00327,-0.012054 -0.00678,-0.016016 -0.010432,-0.00432 -0.026105,-7.45e-4 -0.037852,-0.00379 -0.042752,-0.011029 -0.039393,-0.051088 -0.044629,-0.086484 0.0022,-0.00464 0.00591,-0.00939 0.010019,-0.012461 -2.79e-4,-0.00461 -0.00316,-0.011983 -0.00678,-0.015098 0.00138,-0.020585 0.027678,-0.02352 0.036836,-0.040293 l -0.00104,-0.00965 c -0.022805,-0.030469 -0.086499,0.00309 -0.117207,-0.00281 -0.022964,-0.00438 -0.031757,-0.03138 -0.059668,-0.022383 -0.024328,0.00785 -0.074684,0.048813 -0.097637,0.037695 -0.0068,-0.024507 0.017144,-0.045585 0.018418,-0.067852 -0.00901,-0.01723 -0.014457,-0.034307 -0.02459,-0.051836 -0.026517,-0.01073 -0.02479,0.00384 -0.038437,-0.028516 0.00287,-0.015488 0.00736,-0.03526 0.00502,-0.050898 -0.00209,-0.013746 -0.020286,-0.021464 -0.014453,-0.036484 0.00707,-0.018176 0.05,-0.010885 0.07582,-0.054453 l 0.00889,-0.00283 c 0.02161,0.00833 0.016999,0.082622 0.062598,0.091172 0.010541,0.00199 0.018314,-0.00211 0.028418,-0.00373 0.00504,-0.00346 0.00642,-0.00809 0.00998,-0.0125 0.00462,-0.00578 0.012557,-0.010023 0.016797,-0.016035 0.01295,-0.018305 0.012132,-0.046277 0.022832,-0.065996 0.00987,-0.018156 0.031138,-0.036845 0.046855,-0.051816 0.022028,-0.024119 0.058432,-0.028751 0.081445,-0.050879 0.014543,-0.013965 0.021689,-0.040446 0.035176,-0.053516 0.00951,-0.00918 0.034386,-0.015645 0.048848,-0.021348 0.013677,-0.00454 0.018388,-0.022182 0.029785,-0.031191 0.022207,-0.017559 0.049204,-0.023697 0.074258,-0.03582 0.027334,-0.013239 0.048026,-0.030191 0.07082,-0.049004 2.99e-4,-0.00499 -0.00173,-0.013161 -0.00516,-0.016973 -0.018136,-0.01075 -0.035378,-0.00492 -0.047871,-0.029453 l 0.00322,-0.00709 c 0.020386,-0.010949 0.038904,-0.028239 0.058633,-0.040254 6.47e-4,-0.020565 -0.024867,-0.025812 -0.040176,-0.019551 -0.019958,0.00813 -0.093293,0.073976 -0.1086914,0.0775 -0.00307,6.97e-4 -0.016027,-3.74e-4 -0.01959,-7.23e-4 -0.011029,-0.00751 -0.015319,-0.00997 -0.02166,-0.022363 -0.00693,-0.013567 -0.018153,-0.1212504 -0.01459,-0.1356836 0.00277,-0.011258 0.013444,-0.016539 0.022402,-0.022402 -0.002,-0.016056 -0.014651,-0.035019 -0.014004,-0.049004 0.00777,-0.013289 0.021901,-0.020608 0.032422,-0.031328 0.013318,-0.013597 0.037371,-0.040698 0.04623,-0.057012 0.00679,-0.012552 0.00934,-0.026705 0.016172,-0.039336 0.011148,-0.020525 0.031751,-0.034941 0.043457,-0.056113 0.017788,-0.032171 0.02766,-0.064519 0.042422,-0.098184 0.013587,-0.00374 0.026559,-0.010447 0.040176,-0.01416 0.00721,-0.011089 0.00914,-0.029129 0.017852,-0.037461 0.017061,-0.016384 0.045582,-0.03223 0.054023,-0.056328 0.008,-0.022914 -0.01748,-0.078546 -0.012832,-0.091894 0.00519,-0.00605 0.012786,-0.0091 0.017851,-0.015293 l -0.0016,-0.00873 c -0.00628,-0.00811 -0.02104,-0.012133 -0.030645,-0.013457 l -0.00443,-0.0073 c -0.00174,-0.013965 0.016617,-0.069963 0.018867,-0.089941 0.002,-0.017977 -0.00615,-0.032413 -0.00563,-0.048359 6.87e-4,-0.020276 0.016547,-0.039792 0.018418,-0.05959 0.00287,-0.030379 -0.034532,-0.058625 -0.027793,-0.1116992 0,-0.012821 6.98e-4,-0.026673 -0.00502,-0.038398 -0.018527,-0.037861 -0.057374,-0.063891 -0.075898,-0.1007813 -0.00769,-0.015339 -0.017019,-0.049656 -0.027949,-0.060566 -0.013896,-0.013856 -0.033241,-0.01586 -0.045644,-0.031348 -0.016066,-0.019998 -0.017504,-0.046958 -0.03125,-0.067871 -0.00987,-0.015001 -0.030594,-0.020703 -0.043594,-0.034609 -0.00877,-0.019191 0.036943,-0.1245459 0.04418,-0.1526758 l -0.00518,-0.00543 c -0.017611,-0.00433 -0.034664,-0.012354 -0.052402,-0.016973 -0.035366,-0.00918 -0.1057835,-0.019621 -0.1165039,-0.063379 -0.00192,-0.00782 -3.56e-4,-0.018423 0.00109,-0.02873 l -2.9246875,0 -0.00721,0.00279 -0.00611,3.51e-4 -0.1338672,0.00758 -0.034121,-0.00477 -0.014746,-0.00596 -0.1435938,0 z m -1.3613086,0.098516 2e-5,2e-5 2e-5,-2e-5 -4e-5,0 z m 2e-5,2e-5 -0.005293,0.0026 -0.004785,0.00232 -0.002578,0.00891 0.009805,0.00617 0.0143555,-0.010898 -0.0115039,-0.0091 z m -0.02625,0.041602 -0.050586,0.057266 -0.008926,0.016523 0.003496,0.012402 0.0134375,-0.012402 -0.004746,-0.00939 0.0166015,-0.00801 0.0104102,-0.014375 0.0169922,7.03e-4 0.0182617,-0.021328 0.00541,-0.01123 -0.0106445,-0.00768 -0.009707,-0.00248 z m 0.2543164,0.1218555 -0.0307032,0.00717 -0.0149218,-0.00383 -0.0667383,0.01834 -0.005352,0.00154 -0.024414,-0.00197 -0.0285352,0.0048 -0.0120312,0.010859 -0.0105469,-0.00479 -0.0334766,0.00959 L 0.7192583,6.3076101 0.7083794,6.2948367 0.6836137,6.2841531 0.6565434,6.2896609 0.6243169,6.2939773 0.5982817,6.3047 c 3.38e-4,-0.0016 -0.0176953,0.015001 -0.0176953,0.020547 0,0.00554 0.006921,0.029062 0.008301,0.037363 0.00139,0.00831 0.0124692,0.013853 0.0207812,0.020781 0.0083,0.00692 0.0221631,0.012458 0.029082,0.019375 0.00692,0.00692 0.0304649,0.023524 0.0373829,0.031836 0.00693,0.0083 0.0124341,0.020774 0.0138281,0.030469 0.00138,0.0097 -0.002754,0.024924 -0.002754,0.034609 0,0.00969 0.008306,0.011074 0.0138476,0.011074 0.00554,0 0.006937,-0.016623 0.009707,-0.022168 0.00277,-0.00554 0.0166015,-0.016602 0.0166015,-0.016602 l 0.0277149,-0.018008 c 0,0 0.0124597,-0.012451 0.0207617,-0.016602 0.00831,-0.00416 0.0249144,-0.01524 0.0346094,-0.018008 0.0097,-0.00277 0.0179945,-1e-7 0.0290625,0.00416 0.011069,0.00415 0.0207764,0.00831 0.0318554,0.012461 0.011079,0.00416 0.0193806,0.00692 0.0263086,0.00553 0.00693,-0.00138 0.0165932,-0.017995 0.0304492,-0.020762 0.0138461,-0.00277 0.0193998,3.4e-6 0.0304688,0.00139 0.011079,0.00139 0.0110798,0.0097 0.0180078,0.018008 0.00693,0.0083 0.0180171,0.016621 0.0263281,0.016621 0.0083,0 0.02082,-0.00758 0.02082,-0.00758 l 0.016934,-0.025937 0.04293,-0.011211 0.00248,-0.00574 0.00293,-0.00701 -0.00197,-0.00365 -0.0085,-0.015606 -0.010234,-0.018867 -0.01502,-0.00828 -0.02166,-0.043984 -0.00994,-0.012969 -8.98e-4,-0.00123 -0.020508,-0.013926 -0.0395898,-0.014648 0,-4e-5 z M 0.3257426,6.8922973 0.3008989,6.8955786 0.2271294,6.9356372 0.1700004,6.9529614 0.1348247,6.9494262 0.0366215,6.9877856 0.017227,7.011438 C 0.009067,7.0744459 0.0793826,7.100517 0.0010356,7.1847973 L 4e-7,7.1963403 c 0.0018501,0.010163 0.0152862,0.016657 0.0238672,0.020469 l 0.0045313,0.00992 c 0.00146,0.011865 -0.0081628,0.020963 -0.0111328,0.032012 0.00436,0.013995 0.0165384,0.022781 0.0183593,0.038418 0.0013701,0.011776 -0.0025775,0.025571 0.0028126,0.036719 0.0086299,0.017937 0.0377582,0.026359 0.0529882,0.038184 0.01941,0.01502 0.0342535,0.03628 0.0540625,0.050176 0.036601,0.025631 0.0926295,0.00835 0.1322657,0.00166 0.013617,-0.00229 0.0282984,-0.00512 0.0418164,-0.00801 l 0.00666,-0.00803 c 0.00204,-0.031375 -0.0102926,-0.094558 -0.006016,-0.1133203 l 0.007227,-0.00803 0.0289648,0.00357 c 0.031982,-0.011168 0.0270485,-0.035329 0.0746875,-0.017949 0.00694,-0.00185 0.0139143,-0.00457 0.0201953,-0.00799 0.00517,-0.00963 0.0106544,-0.019696 0.0183985,-0.027539 0.032699,-0.017161 0.0862162,0.053265 0.1478515,0.035547 0.027543,0.00658 0.038492,0.042946 0.0624609,0.054453 0.027612,0.013269 0.0649148,0.00314 0.0942188,0.013418 0.01938,0.00682 0.0268249,0.023384 0.0496289,0.027813 0.00701,-0.00271 0.0144099,-0.00491 0.0217969,-0.00639 0.00968,0.00324 0.0221096,0.00857 0.0272656,0.01793 -0.00386,0.034471 -0.0217186,0.094356 -5.86e-4,0.1258398 0.027383,0.019231 0.0905127,0.030145 0.1232617,0.026582 0.01943,-0.0021 0.0384473,-0.013872 0.0580273,-0.011543 0.00429,0.00489 0.00337,0.017785 0.00176,0.023359 l 0.00602,0.00799 c 0.050427,0.011576 0.067461,-0.060028 0.1010351,-0.024961 0.045868,0.00542 0.1144777,-0.083566 0.1534375,-0.1072266 0.02592,-0.015737 0.061166,7.25e-4 0.090899,-0.016953 0.029673,-0.017688 0.056992,-0.040042 0.086426,-0.057949 0.096484,-0.058669 0.1572258,-0.1107404 0.225918,-0.2016797 0.013866,-0.018365 0.032728,-0.040057 0.042383,-0.061348 l -0.024141,-0.022598 -0.018379,-0.038711 -0.00695,-0.014824 -0.010547,-0.00697 -0.03541,-0.00758 -0.00498,0.00535 -8.2e-4,0.016973 0.00389,0.00723 -0.00715,0.00463 -0.012246,-0.012871 -1.76e-4,0.014766 0.00861,0.015879 -0.00705,0.00686 -0.012227,-0.014277 -0.00299,-0.02041 -0.00602,-0.00502 -0.01459,0.00123 -0.011524,0.00707 -0.00398,0.00971 0.00416,0.015274 0.018769,0.012598 0.036523,0.00404 0.028203,0.00314 -3.91e-4,0.00955 -0.04668,-0.0032 0.0016,0.00555 0.017695,0.009 0.00496,0.015976 -0.00729,0.0017 -0.016758,-0.017773 -0.011992,0.00494 0.00537,0.014355 -0.00889,0.00236 -0.01916,-0.028437 -0.00459,0.00512 0.00834,0.019785 -0.023789,-0.032285 -0.00979,-0.00705 -0.018125,0.00438 -0.00557,0.009 0.017168,0.028008 0.020801,0.017402 -7.03e-4,0.00252 -0.00115,0.00383 -0.00822,9.77e-4 -0.036582,-0.031836 -0.010195,-0.016504 -0.018164,-0.016269 -0.028105,-0.00705 -0.016895,-0.021406 -0.018555,-0.0074 -0.047109,-0.00352 -0.020918,-0.01168 -0.0091,-0.019258 -0.023574,-0.050078 -0.014668,-0.019277 -0.015137,-0.011191 -0.017949,-0.00891 -0.023887,-0.00115 -0.042305,-0.00221 -0.010879,0.019238 -0.00488,0.00855 -0.00229,0.034648 -0.021934,0.058984 -0.0225,0.00455 -0.01002,0.00693 -0.031016,0.00395 -0.019316,0.00238 -0.029707,0.027695 -0.037969,0.021309 -0.02084,0.028125 -0.018223,0.00213 -0.0104297,10e-5 -0.0174023,2.73e-4 -0.0375781,-0.015 -0.0175196,-0.00695 -0.007168,0.00465 -0.0770703,-0.020918 -7.23e-4,-1.37e-4 -0.008125,0.014609 -0.005605,0.01 -0.002578,0.00471 -0.004492,-0.00229 -8.2e-4,-4.49e-4 -0.0366602,-0.019004 -0.034707,-0.0059 -0.019707,-0.00812 -0.006406,-0.00258 -0.0677539,-0.060449 -0.0171484,-0.00586 -0.039668,-4.69e-4 -0.0407617,-0.010781 -0.0591992,-0.028281 -0.024336,-0.0048 -0.0376757,-0.021973 -0.0116016,-0.0098 -0.009746,-0.0083 -0.0240039,-0.00756 -0.0519141,-0.016348 -0.006055,-0.00551 z m 1.2061328,0.1386914 -0.00473,0.011172 0.00406,0.010859 0.00975,0.00623 0.030586,-0.00549 -0.00195,-0.013828 -0.037715,-0.00895 z" id="rect4" inkscape:connector-curvature="0"/>
  <path style="fill:#ae1c28;stroke:#ae1c28;stroke-width:0.008;stroke-miterlimit:4;stroke-dasharray:none;stroke-opacity:1" d="m 6.2056446,0.00409381 -0.014609,0.00152344 -0.00684,0.00804687 -0.00684,0.02576172 0.00393,0.01097656 0.00998,-0.0014844 0.014551,-0.0125 0.04625,0.01443359 0.021582,0.01242188 0.019961,-0.0022266 0.00768,-0.01107422 0.010801,0.01390625 0.00689,-0.0088086 L 6.3135743,0.04479693 6.2904688,0.03087115 6.231875,0.0163985 6.2056446,0.00409381 Z m 0.3170508,0.01222656 -0.049238,8.2031e-4 -0.018418,0.0074219 -0.011465,0.01685546 0.028496,0.01910157 0.024277,0.003125 -0.01043,-0.01490235 0.021465,-0.020625 0.026719,-0.0029297 -0.011406,-0.0088477 0,-1.95e-5 z m -0.603086,0.12574219 -2e-5,2e-5 -0.044805,0.002129 -0.00814,3.516e-4 -0.2503125,0.0348242 -0.025215,0.0148828 -0.022813,0.0258789 -0.017344,0.035332 -0.00135,0.0199023 0.00477,0.0124219 0.01293,-0.0133008 5.66e-4,0.001973 0.00264,0.009023 -0.010625,0.0162305 -0.00287,0.0176562 0.00391,0.008047 0.00766,-0.001523 0.024375,-0.0215039 6.64e-4,-0.0139844 0.01832,-0.008223 0.01291,-0.0138477 0.031465,-0.008477 0.04166,-0.001074 0.092676,-0.007227 0.041289,-0.019375 0.023613,-0.0258984 0.055273,-0.00916 0.019883,-0.0140234 0.020742,-0.003047 0.028262,-0.0199805 -0.00926,-0.0109766 -0.05084,-0.007051 z m -0.7248047,0.13080078 0,2e-5 -0.052226,0.00125 -0.074922,0.008223 -0.111582,0.0122266 -0.00133,5.9e-5 -0.2125,0.0138476 -0.00408,-1.563e-4 -0.063574,-0.00332 -0.034629,-0.007578 -0.054121,-0.0198047 -0.023809,-0.001074 -0.018965,0.0127539 -0.011406,0.008223 -0.00285,0.009629 0.00102,8.789e-4 0.00982,0.008496 -0.0015,0.002148 -0.010469,0.0148828 0.00203,0.0170508 6.45e-4,0.004902 0.015781,0.0269727 0.00229,0.001328 0.040332,0.0230274 0.014024,0.001426 0.029805,0.003008 0.049062,-0.004316 0.031992,-0.0129687 0.032402,-0.0363867 0.011055,-0.005098 0.00193,-9.18e-4 0.00324,8.008e-4 0.041426,0.0103516 0.017598,-0.003184 0.053145,0.0124609 0.013809,-0.002324 0.025352,0.004805 0.033594,-0.0151562 0.047637,-0.006836 0.08248,-0.0188477 0.049648,-0.021875 0.00143,9.8e-5 0.083867,0.004824 0.034258,-0.0231055 -0.016113,-0.009219 -0.011719,-0.006699 -0.023867,-0.004824 z m 1.6051172,0.004395 -1.17e-4,2e-5 -0.054492,0.003027 -0.1097852,0.0279687 -0.045254,0.0191601 -0.021465,0.0140234 -0.043184,0.0152148 -0.028105,0.0186719 -0.062129,0.010332 -0.035254,0.01625 -0.093555,0.0135938 -0.037598,-0.00502 -0.048281,0.006797 -0.00859,0.002246 -0.039687,0.0104297 -0.093516,0.0121484 -0.013672,0.007148 -0.093418,0.0367578 -0.046524,0.030332 -0.024766,-0.0284375 -0.033906,-0.0232812 -0.070762,-0.0259961 -0.016387,0.00752 -0.00652,0.00293 -0.00699,0.001895 -0.00482,0.001328 -0.058047,0.0158008 -0.00164,-0.001875 -0.010977,-0.0121489 -0.00615,0.009961 0.00713,0.005684 0.019219,0.0106836 c 0,0 0.012815,0.007825 0.014238,0.0113867 0.00143,0.00355 0.012134,0.006415 0.01498,0.008555 0.00285,0.00213 0.019917,0.007112 0.022754,0.007813 0.00287,7.167e-4 0.00788,0.0102824 0.00643,0.0149414 -0.00142,0.00459 -0.0089,0.007205 -0.013516,0.008535 -0.00514,0.00148 -0.012735,0.00167 -0.017812,0 -0.00958,-0.00315 -0.020282,-0.0124359 -0.027031,-0.0199219 -0.00565,-0.00626 -0.014258,-0.0241992 -0.014258,-0.0241992 l -0.00783,-0.00498 -0.017812,0 c 0,0 -0.0077,0.008331 -0.00926,0.0128125 -0.00161,0.00465 -0.00334,0.0122162 -7.03e-4,0.0163672 0.00298,0.00469 0.012442,0.004069 0.01709,0.007109 0.00544,0.00354 0.01205,0.00957 0.015664,0.0149609 0.00229,0.00343 0.00731,0.00941 0.00498,0.0128125 -0.00278,0.00405 -0.011579,-0.00107 -0.016367,0 -0.00485,0.0011 -0.014025,0.002239 -0.014961,0.007109 -7.66e-4,0.00401 0.00573,0.00795 0.00926,0.01 0.00645,0.00375 0.019929,0.004234 0.024199,0.005664 0.00428,0.00142 0.013754,0.004507 0.017109,0.009277 0.00324,0.00459 3.92e-4,0.0134391 0.00285,0.0184961 0.00219,0.00448 0.00662,0.0106564 0.011387,0.0121094 0.00836,0.00256 0.021221,-0.001526 0.028477,-0.006406 0.00559,-0.00378 0.00643,-0.0162866 0.012812,-0.0185156 0.00211,-7.366e-4 0.00557,5.639e-4 0.00715,0.002148 0.00328,0.00332 0.00571,0.0105214 0.00426,0.0149414 -0.00111,0.00333 -0.00637,0.005158 -0.00926,0.007148 -0.00537,0.0037 -0.019044,0.004884 -0.018516,0.0113672 4.18e-4,0.00507 0.010628,0.005956 0.015684,0.006426 0.00413,3.683e-4 0.00945,-0.001942 0.013496,-0.002852 0.00449,-0.00101 0.011058,-0.005975 0.014981,-0.003555 0.00242,0.00151 0.0029,0.006518 0.00211,0.009258 -0.00174,0.00609 -0.00938,0.0119245 -0.014941,0.0149805 -0.0069,0.00378 -0.020906,-6.4e-4 -0.025625,0.005664 -0.00179,0.00241 -4.92e-4,0.007231 7.23e-4,0.009961 0.00237,0.00539 0.011317,0.008777 0.013496,0.0142383 5.58e-4,0.00139 7.86e-4,0.00372 0,0.005 -9.95e-4,0.00162 -0.00378,0.002652 -0.00568,0.002832 -0.00619,5.773e-4 -0.014855,-0.002084 -0.019922,-0.005684 -0.00425,-0.00303 -0.00697,-0.009998 -0.00998,-0.0142578 -0.00212,-0.003 -0.00457,-0.007281 -0.00711,-0.009941 -0.00356,-0.00374 -0.00841,-0.00992 -0.013535,-0.0106836 -0.00408,-6.171e-4 -0.010394,0.00164 -0.012812,0.00498 -0.00465,0.00641 -0.00145,0.0220877 -0.00145,0.0263477 0,0.00426 -0.00355,0.008553 -0.00783,0.005703 -0.00427,-0.00285 -0.00352,-0.0172808 -0.00639,-0.0242188 -0.00179,-0.00433 -0.00422,-0.0105296 -0.00783,-0.0135156 -0.00557,-0.00459 -0.019239,-0.008542 -0.022793,-0.007832 -0.00355,7.067e-4 -0.00774,0.007737 -0.00854,0.0121094 -0.00138,0.00759 0.00287,0.0206414 0.00643,0.0249023 0.00356,0.00426 0.01779,0.0199377 0.02207,0.0263477 0.00427,0.0064 0.00152,0.007236 -7.23e-4,0.008516 -0.00472,0.00271 -0.013521,-0.004973 -0.016367,-0.007813 -0.00285,-0.00285 -0.011389,-0.0142391 -0.018516,-0.0234961 -0.00712,-0.00926 -0.00711,-0.0156453 -0.00711,-0.0249023 0,-0.00926 5.08e-4,-0.0134857 0,-0.0192187 -5.28e-4,-0.00605 -0.00142,-0.0164069 -0.00355,-0.0199609 -0.00213,-0.00355 -0.00854,-0.019205 -0.00854,-0.025625 0,-0.00641 -3.5e-6,-0.0128049 7.03e-4,-0.0199219 7.07e-4,-0.00713 -7.21e-4,-0.0163958 -0.00428,-0.0220898 -0.00357,-0.00568 -0.00567,-0.002123 -0.00711,-0.007813 -0.00142,-0.00569 -7.4e-4,-0.0256369 6.84e-4,-0.0327539 0.00142,-0.00712 0.00617,-0.0373438 0.00617,-0.0373438 l -0.036738,0.0154492 -0.00211,-4.492e-4 -0.091641,-0.017832 -0.012168,0.0110547 -0.032266,-0.003398 -0.047402,0.008574 -0.032949,2.539e-4 -0.056348,0.0171484 -0.040059,0.005098 -0.041973,0.0129102 -0.08123,0.0348047 -0.062559,-0.003828 -0.022832,0.008984 -0.041875,0.0262891 -0.063301,0.0197852 -0.017442,0.0141992 -0.050976,0.02125 -0.015176,0.0111523 -0.045742,0.0145508 -0.060918,0.036582 -0.07791,0.0468359 -0.022148,0.003945 -0.015899,0.0127734 -0.027246,-0.001641 -0.099434,0.0225977 -0.033301,0.0203516 -0.058164,0.0441797 -0.016367,0.0259375 -0.00281,0.0162891 -0.061582,0.0647461 -0.00145,0.001543 -0.013613,0.006309 -10e-5,0 -0.02418,0.0112695 -0.00307,0.002227 -0.013359,0.009648 -0.0032,0.002402 -0.057246,0.0442577 -0.053262,0.050156 -0.025156,0.042226 -0.021699,0.061387 0.011719,0.027383 -0.020254,0.00287 -0.00664,0.012578 0.00324,0.04918 -0.013496,0.086191 -0.018379,0.03625 -0.031211,0.037285 -0.00865,0.026719 0.00369,0.028086 0.00352,0.027578 0.023047,0.056934 0.010547,0.026152 -0.00291,0.00742 -0.030371,-0.012285 0.00551,-0.016582 -0.01123,-0.027734 -0.029863,-0.010469 -0.00287,0.011074 0.018984,0.033477 0.019414,0.010254 -0.00594,0.018066 0.012832,0.032031 0.014238,0.010098 0.019004,-0.012695 0.00379,0.029902 -0.015586,0.018574 0.013184,0.014453 0.00447,0.038184 -0.00711,0.058809 0.024395,0.083379 -0.00104,0.024531 -0.00744,0.00641 0.00496,0.021973 -0.00424,0.015547 -0.018809,0.00908 -0.00361,0.00672 0.017402,0.036406 0.0033,0.053535 -0.0073,0.014082 -0.015684,0.011348 -0.015898,2.93e-4 -0.022539,0.010684 -0.028926,0.030703 -0.00791,0.022129 0.024648,0.058262 0.015254,0.00562 0.012168,0.010352 0.039453,0.033555 0.042695,0.016875 0.045098,-0.021426 0.023477,0.00178 0.018203,0.00117 0.1533789,0.066484 0.02498,0.00238 0.046816,-0.010059 0.019707,-0.039258 0.028691,-0.010019 0.022734,0.00182 0.033887,-0.01002 0.018574,-0.020078 0.012969,0.00125 0.018496,0.023926 0.00736,0.032207 0.027891,-0.00555 0.042402,-0.00133 0.029727,0.010977 0.00473,0.0018 0.00211,7.03e-4 0.00156,0.00543 0.00156,0.00553 -5.86e-4,4.1e-4 -0.00613,0.00406 -0.04457,0.00357 -0.021074,0.00836 -0.027988,0.00342 -0.1241601,0.1813281 -0.00436,0.00643 -0.00809,0.038633 -0.00867,0.04168 0.00361,0.03666 -4.49e-4,0.025684 -0.00268,0.1477344 -0.00207,0.025762 -0.00102,0.013125 -0.00734,0.012676 0.010781,0.01084 0.00352,4.3e-4 0.00699,8.79e-4 0.00381,0.0057 0.00627,0.00957 0.00678,5.86e-4 0.029316,0.041445 0.016875,0.014434 0.036074,0.055723 4.3e-4,6.25e-4 0.00102,0.00158 2.1529882,0 c -0.00303,-0.00529 -0.00675,-0.010931 -0.011543,-0.017187 l 0.00383,-0.00895 c 0.024298,-0.00497 0.052501,-0.054204 0.087031,-0.070449 0.049501,-0.023292 0.057847,0.00709 0.099863,0.00709 0.037716,0 0.079274,-2.59e-4 0.1166407,-0.0052 0.014384,-0.00189 0.03137,-0.00729 0.045644,-0.00729 0.00326,0 0.012322,0.00233 0.015059,0.00352 0.015364,0.00671 0.026574,0.037594 0.036348,0.041934 0.0074,5.97e-4 0.099708,-0.00418 0.103086,-0.00518 0.0068,-0.00472 0.010056,-0.012254 0.016816,-0.016973 0.03341,-0.00805 0.067109,0.063697 0.119864,0.039121 0.02253,-0.010501 0.037893,-0.074007 0.038593,-0.09707 8.2e-4,-0.027762 -0.00431,-0.055857 -0.00221,-0.083887 0.0025,-0.033545 0.0087,-0.067126 0.011641,-0.1008203 0.0026,-0.030479 0.00171,-0.061555 0.00291,-0.092363 0.004,-0.060629 -0.00121,-0.1138387 0.0077,-0.17625 0.0014,-0.010123 -0.0013,-0.022262 0.0016,-0.032266 0.0096,-0.03235 0.048607,-0.054818 0.041797,-0.090234 -0.0028,-0.023521 8.4e-4,-0.040091 0.012969,-0.060547 0.01664,-0.027991 0.043266,-0.048193 0.063046,-0.074004 0.01082,-0.014095 0.024821,-0.031717 0.031231,-0.048301 0.0032,-0.00818 0.00479,-0.016189 0.00939,-0.024023 0.01664,-0.02806 0.042014,-0.048968 0.058614,-0.077754 0.0062,-0.0107 0.042584,-0.1117635 0.045234,-0.1248828 0.0051,-0.024945 0.00829,-0.04995 0.016074,-0.076816 -0.0024,-0.020097 0.017736,-0.042515 0.015586,-0.055117 -0.0019,-0.00336 -0.00779,-0.010671 -0.00879,-0.013437 -0.0039,-0.011119 -0.017923,-0.1999326 -0.017363,-0.2205274 6.3e-4,-0.024208 0.0069,-0.062009 0.0018,-0.084824 -0.0074,-0.033017 -0.04088,-0.021992 -0.03627,-0.08293 0.0016,-0.02171 0.010477,-0.032005 0.017227,-0.050898 0.0054,-0.015279 3.7e-4,-0.034513 0.00621,-0.04998 0.0051,-0.013508 0.017369,-0.021315 0.023379,-0.033906 0.02284,-0.047689 0.019936,-0.10174 0.00891,-0.1517188 -0.0025,-0.011248 -0.0061,-0.047616 -0.010606,-0.054434 l -0.050996,-0.00244 -0.035058,-0.0163281 -0.013028,0.006504 -0.052617,-0.0216016 -0.038144,-0.006035 -0.021387,-0.008125 -0.038008,-0.0368555 0.00779,-0.0447852 -0.011269,-0.0463281 0.00219,-0.005254 0.020156,-0.0233203 -0.00141,-0.007383 -8.2e-4,-0.004199 0,-7.8e-5 -0.00391,0.002227 -0.034454,0.0203516 -9.2e-4,-5.9e-5 -0.011836,-0.001816 -0.095019,-0.0140234 -0.025215,-0.0110547 -0.0092,-0.008848 -0.00139,-0.008828 -0.017539,-0.002715 -0.016191,-0.002617 -0.00691,-0.0124609 -0.015254,-0.009551 -0.051992,-0.0163477 -0.044317,-0.0426758 -0.045899,-0.0309375 -0.03123,-0.11599609 4e-5,-0.0381836 -0.01875,-0.0263477 -0.01168,-0.0164063 -9.57e-4,-0.001348 0.01082,-0.0411328 -0.00229,-0.0271289 0.00768,-0.025 -0.070586,-0.0485351 -0.012246,-0.001465 -0.00561,0.0132227 -0.00131,0.002852 8.01e-4,0.005156 0.015449,0.008965 0,0.008535 -0.043125,-0.001348 -0.011465,-0.0117774 0.022227,-0.0205273 0,-0.002383 0,-0.001094 0,-0.0163086 -0.025313,-0.008828 -0.00973,0.005176 -0.024844,0.0131055 -0.042226,-0.0168555 -0.057598,-0.0110547 z m -1.3774804,0.0242187 -0.032969,0.003184 -0.00764,0.005996 0.00713,0.0189844 1.76e-4,0.0161328 0.010059,0.006562 0.00746,-0.01625 0.00842,-0.002246 0.00988,-0.0125781 0.00689,0.003574 0.00305,-0.007344 -0.012461,-0.0160156 z m -1.0155079,0.0229102 -0.035234,0.003477 -0.072774,0.022207 -0.2218359,0.0677344 -0.036523,0.01125 -0.1487696,0.0409766 -0.038027,0.007754 -0.015781,0.003203 -0.00566,0.001152 -0.054531,0.006797 -0.037324,0.004648 -0.011465,-0.001797 -0.017754,-0.002754 -0.010547,0.00627 -0.00875,0.005156 0.00695,7.227e-4 0.016563,0.00168 -0.00705,0.003574 -0.015742,0.00793 -0.020059,0.0268555 -0.066172,0.0579492 -0.00338,0.0191602 0.014844,0.0437305 0.018652,0.0128516 0.023086,0.003906 0.018223,-0.00623 0.024883,-0.0166797 -1.37e-4,-0.008828 0.00666,-0.006719 0.00373,-0.001328 0.00773,-0.002754 0.00379,-0.001367 0.018574,-0.0261133 0.03291,-0.001367 0.00156,-0.001504 0.018672,-0.0180274 0.026582,-0.0107812 0.038301,-7.227e-4 0.014726,0.00623 0.018984,-0.006152 0.013574,-0.0120117 0.021367,-0.004121 0.017813,0.005098 0.00148,4.492e-4 0.042598,-0.0288281 0.00332,-0.002227 0.00471,-0.003242 0.021953,-0.0148047 0.056914,-0.0299023 0.1425,-0.005176 0.00906,-0.009727 -0.036934,-0.032207 -1.76e-4,-0.005898 0.010527,6.25e-4 0.018652,0.0147266 0.021289,0.00123 -0.01043,-0.0255274 0.00998,0.00127 0.01248,0.0100586 0.016035,-0.003906 0.013633,-0.0105078 0.017559,-0.003926 0.022695,-0.0158203 0.00318,8.789e-4 0.013828,0.003965 0.00959,-0.00502 0.011797,-0.006152 0.025527,-0.0133008 0.0025,-0.00125 0.00967,-0.015625 0.017695,-9.766e-4 0.00865,-0.004453 0.0225,-0.0115234 -4.49e-4,-8.984e-4 -0.00352,-0.007031 -0.039473,-0.0163281 -2e-5,0 z m -0.9734375,0.47091797 -0.0175,0.002559 -0.050762,0.0225195 -0.07166,0.0391211 -0.00369,0.002539 -0.026855,0.0184961 -0.049551,0.0341992 -0.00703,0.004785 -0.021035,0.0240234 -0.019121,0.0217774 -0.039453,0.0361914 -0.03752,0.025195 -0.040957,0.011231 -0.039805,0.025957 -0.010488,0.00914 0.00967,0.01668 0.0075,-0.00607 0.02166,0.00893 0.029941,-0.00273 0.00623,-5.47e-4 0.00186,-1.76e-4 0.00457,-4.49e-4 0.020879,0.009 0.03127,-0.00223 0.049512,-0.064355 0.037812,-0.013398 0.041953,-0.0333008 0.00359,-0.00748 -0.00395,-0.005781 -0.011504,-0.001172 -0.010254,-0.0165039 -0.00486,-0.007852 -0.00326,-0.005352 0.0016,-0.002324 0.00502,-0.007305 0.052598,-0.0229297 0.022246,-0.009746 0.050723,-0.0166016 0.00469,-0.001484 0.034648,-0.0221484 0.02459,-0.0247266 0.004,-7.8e-5 0.053379,-0.00125 0.00123,-0.001699 0.00836,-0.0116992 -0.00412,-0.0123828 -0.056133,-0.0105469 -2e-5,-2e-5 z m -0.43875,0.40337889 -0.046855,0.045234 -0.00176,0.00258 -0.038301,0.057051 -0.018105,0.027031 -0.067676,0.1009375 -0.00559,0.00828 -0.024648,0.036875 -8.79e-4,0.00133 -0.00605,0.00902 -0.012012,0.031875 -0.016855,0.022461 -0.010762,0.024004 -0.00994,0.022129 -0.030899,0.1382422 6e-5,0.027129 0.010781,0.031309 0.00973,0.016602 0.00586,0.0099 0.00178,0.00305 0.00188,0.00307 0.00365,0.00303 0.011894,0.00973 0.052773,-0.014668 0.012715,-0.00543 0.0051,-0.009 0.020508,9.96e-4 0.012773,-0.00557 0.00561,-0.018457 0.00664,-0.00453 0.0085,0.00408 0.00166,-0.00338 0.01127,-0.023379 0.045488,-0.058457 0.042226,-0.012109 0.026758,-0.022715 0.039082,-0.047285 0.013867,-0.048086 0.038711,-0.033301 0,-0.055078 0.00191,-0.011035 1.95e-4,-0.00125 0.00426,-0.024531 8.4e-4,-0.00518 -6.64e-4,-0.00494 -0.00395,-0.026602 0.00955,-0.036855 0.00287,-0.011113 -0.025957,-0.058184 -0.00803,-0.00449 -0.018184,-0.010156 -0.010039,-0.020898 -0.00223,-0.00465 -0.00357,-0.019687 -0.03373,-0.03375 -0.012227,-0.00115 -2e-5,-2e-5 z m -0.1418554,0.6941211 -0.029727,0.00195 -0.039844,0.00271 -0.022168,0.0015 -0.012656,0.00988 -0.00869,0.016855 -0.0085,0.016621 -0.00684,0.1544726 -0.0051,0.051582 -0.00191,0.019902 -0.013672,0.068516 -0.00152,0.00762 -0.020957,0.076309 -5.47e-4,0.00205 -0.038555,0.1399805 -0.024102,0.054277 -0.00516,0.00697 -0.00166,0.00227 -0.00586,0.00791 -0.00842,0.011426 -0.019824,0.1216211 -3.91e-4,0.00447 0,1.95e-4 -0.00639,0.072715 -0.00213,0.024453 -0.00965,0.056777 -4.49e-4,0.0027 -0.010371,0.060801 -0.00279,0.080234 -0.00646,0.034512 0.7991211,0 -0.00225,-0.011641 0.00482,-0.016953 0.010234,-0.012773 0.011328,-0.00467 0.022461,-0.00918 0.011738,-0.0048 0.030176,0.00922 0.00553,0.00166 0.031992,-0.016172 0.00182,-2e-5 0.014023,-3.32e-4 0.00477,0.010195 0.005,0.00234 0.00775,0.00371 0.00105,5.47e-4 0.00523,0.00248 0.023027,0.00381 0.00881,0.00146 0.00783,0.00727 0.00832,0.00771 0.00352,0.022754 0.010625,0.00336 0.055391,-0.015859 0.027363,-0.026016 0.00576,-0.00547 0.01416,0 0.019043,0 0.082988,-0.06418 0.013769,-0.025234 -2.93e-4,-0.0052 -9.37e-4,-0.015351 0.00273,-0.00842 0.010898,-0.033047 0.00338,-0.010332 0.039121,-0.00373 0.00404,0.00988 0.00559,0.01375 0.00721,0.00674 0.027226,-0.034727 0,-4.49e-4 -1.56e-4,-0.00529 -2e-5,-0.00105 -0.011719,-0.00205 -0.00408,-0.01375 0.022344,-0.015898 8.59e-4,-0.00168 0.00781,-0.015352 3.12e-4,-0.00582 2.34e-4,-0.00451 -0.010977,-0.011816 -0.00445,-0.0048 -0.00891,-0.027715 0.00188,-0.049727 8e-5,-0.00168 -0.010293,-0.021152 -0.00129,-5.27e-4 -0.012422,-0.0051 -0.00363,-0.010586 -10e-5,-3.12e-4 -0.00303,-0.00893 -0.023594,-0.00623 -0.08793,-0.00439 -0.030645,-0.0015 -0.00371,-1.76e-4 -5.27e-4,1.76e-4 -0.01291,0.00457 -0.03168,0.037305 -0.016289,0.012852 -0.035469,0.00148 -0.012324,-0.00998 -0.014297,-0.029102 -0.020742,-0.014277 -0.00715,-0.015254 0.00109,-0.015449 -0.00559,-0.013125 -0.012305,-0.00998 -0.018496,-0.016484 -0.00182,-0.011016 0.025,-0.1848242 10e-5,-7.81e-4 -0.00133,-0.023535 -0.00807,-0.01457 -0.048926,-0.088418 -0.014551,-0.037949 -0.00566,-0.014531 -0.011641,-0.011523 -0.00791,-0.015605 -0.024102,-0.0475 -0.00627,-0.012383 -0.014687,-0.012129 8.01e-4,-0.00102 0.00877,-0.011758 -3.32e-4,-4.69e-4 -0.00621,-0.00793 -0.00623,-0.00813 -0.00684,-0.00875 -0.00971,0.0083 -0.00846,-0.00354 -0.0099,-0.0041 -0.025469,0.013828 -0.028301,-0.00893 -0.01127,0.00412 -0.043398,0.015664 -0.010742,0.00389 -0.015625,0.012109 -0.01584,0.032676 -0.030703,0.033164 -0.00357,0.00387 -0.00402,0.0043 -0.063691,0.027305 -0.00766,0.0066 -0.00271,0.00242 -0.035019,0.00523 -0.010859,0.00164 -0.00102,1.56e-4 -0.04668,-0.01793 -0.01252,-0.013574 -8.79e-4,-3.52e-4 -0.035977,-0.016328 -0.026367,-0.021426 -0.035762,-0.083535 0.00102,-0.017676 0.01625,-0.036563 2.15e-4,-5.47e-4 0,-3.12e-4 -5.08e-4,-0.00832 -0.00109,-0.02 -3.32e-4,-1.17e-4 -0.0073,-0.00268 -0.011836,0.00809 -0.010547,0.00727 -0.0098,-7.23e-4 -0.012422,-0.00641 0.00162,-0.01377 4.88e-4,-0.00408 3.91e-4,-0.00322 z" id="rect8" inkscape:connector-curvature="0"/>
</svg>