<?xml version="1.0" encoding="UTF-8" standalone="no"?>
<!DOCTYPE svg PUBLIC "-//W3C//DTD SVG 1.1//EN"
 "http://www.w3.org/Graphics/SVG/1.1/DTD/svg11.dtd">
<!-- Generated by graphviz version 2.40.1 (20161225.0304)
 -->
<!-- Title: shacl Pages: 1 -->
<svg width="474pt" height="317pt"
 viewBox="0.00 0.00 474.00 317.00" xmlns="http://www.w3.org/2000/svg" xmlns:xlink="http://www.w3.org/1999/xlink">
<g id="graph0" class="graph" transform="scale(1 1) rotate(0) translate(4 313)">
<title>shacl</title>
<polygon fill="#ffffff" stroke="transparent" points="-4,4 -4,-313 470,-313 470,4 -4,4"/>
<!-- n92e5b4291098219a63309cd748df471f -->
<g id="node1" class="node">
<title>n92e5b4291098219a63309cd748df471f</title>
<g id="a_node1"><a xlink:href="http://www.opengis.net/ont/geosparql#Feature" xlink:title="&lt;TABLE&gt;">
<polygon fill="none" stroke="#000000" points="170,-280 170,-301 272,-301 272,-280 170,-280"/>
<text text-anchor="start" x="173.5" y="-287.8" font-family="Times,serif" font-weight="bold" font-size="14.00" fill="#000000">geo:Feature</text>
<polygon fill="none" stroke="#000000" points="167,-277.5 167,-304.5 275,-304.5 275,-277.5 167,-277.5"/>
</a>
</g>
</g>
<!-- n8ec4de00c5da576e9d824ec2407c29ee -->
<g id="node4" class="node">
<title>n8ec4de00c5da576e9d824ec2407c29ee</title>
<g id="a_node4"><a xlink:href="https://iisg.amsterdam/vocab/Authority" xlink:title="&lt;TABLE&gt;">
<polygon fill="none" stroke="#000000" points="11,-196.5 11,-217.5 195,-217.5 195,-196.5 11,-196.5"/>
<text text-anchor="start" x="39" y="-204.3" font-family="Times,serif" font-weight="bold" font-size="14.00" fill="#000000">vocab:Authority</text>
<polygon fill="none" stroke="#000000" points="11,-173.5 11,-194.5 85,-194.5 85,-173.5 11,-173.5"/>
<text text-anchor="start" x="14" y="-180.3" font-family="Times,serif" font-size="14.00" fill="#000000">rdfs:label</text>
<polygon fill="none" stroke="#000000" points="87,-173.5 87,-194.5 195,-194.5 195,-173.5 87,-173.5"/>
<text text-anchor="start" x="90" y="-180.3" font-family="Times,serif" font-size="14.00" fill="#000000">rdf:langString</text>
<polygon fill="none" stroke="#000000" points="8,-170.5 8,-220.5 198,-220.5 198,-170.5 8,-170.5"/>
</a>
</g>
</g>
<!-- n92e5b4291098219a63309cd748df471f&#45;&gt;n8ec4de00c5da576e9d824ec2407c29ee -->
<g id="edge2" class="edge">
<title>n92e5b4291098219a63309cd748df471f&#45;&gt;n8ec4de00c5da576e9d824ec2407c29ee</title>
<g id="a_edge2"><a xlink:href="http://www.w3.org/2000/01/rdf-schema#subClassOf">
<path fill="none" stroke="#000000" d="M190.6247,-266.4166C174.8159,-253.6222 155.3885,-237.8991 138.8469,-224.5117"/>
<polygon fill="none" stroke="#000000" points="188.5522,-269.242 198.5274,-272.8124 192.956,-263.8007 188.5522,-269.242"/>
</a>
</g>
</g>
<!-- n372f0ec0a2c0bab14216b4f40cba5111 -->
<g id="node5" class="node">
<title>n372f0ec0a2c0bab14216b4f40cba5111</title>
<g id="a_node5"><a xlink:href="https://iisg.amsterdam/vocab/House" xlink:title="&lt;TABLE&gt;">
<polygon fill="none" stroke="#000000" points="236,-207.5 236,-228.5 447,-228.5 447,-207.5 236,-207.5"/>
<text text-anchor="start" x="290" y="-215.3" font-family="Times,serif" font-weight="bold" font-size="14.00" fill="#000000">vocab:House</text>
<polygon fill="none" stroke="#000000" points="236,-184.5 236,-205.5 337,-205.5 337,-184.5 236,-184.5"/>
<text text-anchor="start" x="252.5" y="-191.3" font-family="Times,serif" font-size="14.00" fill="#000000">rdfs:label</text>
<polygon fill="none" stroke="#000000" points="339,-184.5 339,-205.5 447,-205.5 447,-184.5 339,-184.5"/>
<text text-anchor="start" x="342" y="-191.3" font-family="Times,serif" font-size="14.00" fill="#000000">rdf:langString</text>
<polygon fill="none" stroke="#000000" points="236,-161.5 236,-182.5 337,-182.5 337,-161.5 236,-161.5"/>
<text text-anchor="start" x="239" y="-168.3" font-family="Times,serif" font-size="14.00" fill="#000000">vocab:source</text>
<polygon fill="none" stroke="#000000" points="339,-161.5 339,-182.5 447,-182.5 447,-161.5 339,-161.5"/>
<text text-anchor="start" x="356.5" y="-168.3" font-family="Times,serif" font-size="14.00" fill="#000000">xsd:string</text>
<polygon fill="none" stroke="#000000" points="232.5,-159 232.5,-232 449.5,-232 449.5,-159 232.5,-159"/>
</a>
</g>
</g>
<!-- n92e5b4291098219a63309cd748df471f&#45;&gt;n372f0ec0a2c0bab14216b4f40cba5111 -->
<g id="edge4" class="edge">
<title>n92e5b4291098219a63309cd748df471f&#45;&gt;n372f0ec0a2c0bab14216b4f40cba5111</title>
<g id="a_edge4"><a xlink:href="http://www.w3.org/2000/01/rdf-schema#subClassOf">
<path fill="none" stroke="#000000" d="M251.9112,-266.3998C263.4882,-257.1865 276.9712,-246.4562 289.8917,-236.1737"/>
<polygon fill="none" stroke="#000000" points="249.4986,-263.8467 243.8535,-272.8124 253.8576,-269.3239 249.4986,-263.8467"/>
</a>
</g>
</g>
<!-- n8c5206359180a6a5e9d76ce7e51def2c -->
<g id="node2" class="node">
<title>n8c5206359180a6a5e9d76ce7e51def2c</title>
<g id="a_node2"><a xlink:href="http://www.opengis.net/ont/geosparql#Geometry" xlink:title="&lt;TABLE&gt;">
<polygon fill="none" stroke="#000000" points="52,-76 52,-97 259,-97 259,-76 52,-76"/>
<text text-anchor="start" x="99.5" y="-83.8" font-family="Times,serif" font-weight="bold" font-size="14.00" fill="#000000">geo:Geometry</text>
<polygon fill="none" stroke="#000000" points="52,-53 52,-74 145,-74 145,-53 52,-53"/>
<text text-anchor="start" x="57.5" y="-59.8" font-family="Times,serif" font-size="14.00" fill="#000000">geo:asWKT</text>
<polygon fill="none" stroke="#000000" points="147,-53 147,-74 259,-74 259,-53 147,-53"/>
<text text-anchor="start" x="150" y="-59.8" font-family="Times,serif" font-size="14.00" fill="#000000">geo:wktLiteral</text>
<polygon fill="none" stroke="#000000" points="52,-30 52,-51 145,-51 145,-30 52,-30"/>
<text text-anchor="start" x="55" y="-36.8" font-family="Times,serif" font-size="14.00" fill="#000000">vocab:begin</text>
<polygon fill="none" stroke="#000000" points="147,-30 147,-51 259,-51 259,-30 147,-30"/>
<text text-anchor="start" x="168" y="-36.8" font-family="Times,serif" font-size="14.00" fill="#000000">xsd:gYear</text>
<polygon fill="none" stroke="#000000" points="52,-7 52,-28 145,-28 145,-7 52,-7"/>
<text text-anchor="start" x="62" y="-13.8" font-family="Times,serif" font-size="14.00" fill="#000000">vocab:end</text>
<polygon fill="none" stroke="#000000" points="147,-7 147,-28 259,-28 259,-7 147,-7"/>
<text text-anchor="start" x="168" y="-13.8" font-family="Times,serif" font-size="14.00" fill="#000000">xsd:gYear</text>
<polygon fill="none" stroke="#000000" points="48.5,-4 48.5,-100 261.5,-100 261.5,-4 48.5,-4"/>
</a>
</g>
</g>
<!-- n00499173297ca522582722effea83067 -->
<g id="node3" class="node">
<title>n00499173297ca522582722effea83067</title>
<g id="a_node3"><a xlink:href="https://iisg.amsterdam/vocab/Alloy" xlink:title="&lt;TABLE&gt;">
<polygon fill="none" stroke="#000000" points="350,-64 350,-85 453,-85 453,-64 350,-64"/>
<text text-anchor="start" x="356" y="-71.8" font-family="Times,serif" font-weight="bold" font-size="14.00" fill="#000000">vocab:Alloy</text>
<polygon fill="none" stroke="#000000" points="350,-41 350,-62 453,-62 453,-41 350,-41"/>
<text text-anchor="start" x="353" y="-47.8" font-family="Times,serif" font-size="14.00" fill="#000000">vocab:copper</text>
<polygon fill="none" stroke="#000000" points="350,-18 350,-39 453,-39 453,-18 350,-18"/>
<text text-anchor="start" x="358" y="-24.8" font-family="Times,serif" font-size="14.00" fill="#000000">vocab:silver</text>
<polygon fill="none" stroke="#000000" points="346.5,-15.5 346.5,-88.5 455.5,-88.5 455.5,-15.5 346.5,-15.5"/>
</a>
</g>
</g>
<!-- n8ec4de00c5da576e9d824ec2407c29ee&#45;&gt;n8c5206359180a6a5e9d76ce7e51def2c -->
<g id="edge1" class="edge">
<title>n8ec4de00c5da576e9d824ec2407c29ee&#45;&gt;n8c5206359180a6a5e9d76ce7e51def2c</title>
<path fill="none" stroke="#000000" d="M99.3716,-166.198C98.6765,-152.4522 99.3205,-136.0444 104,-122 104.967,-119.0979 106.1023,-116.215 107.3731,-113.3666"/>
<polygon fill="#000000" stroke="#000000" points="110.5119,-114.9153 111.8528,-104.4056 104.2507,-111.7852 110.5119,-114.9153"/>
<text text-anchor="start" x="104" y="-125.8" font-family="Times,serif" font-size="14.00" fill="#000000">geo:hasGeometry</text>
</g>
<!-- n372f0ec0a2c0bab14216b4f40cba5111&#45;&gt;n8c5206359180a6a5e9d76ce7e51def2c -->
<g id="edge3" class="edge">
<title>n372f0ec0a2c0bab14216b4f40cba5111&#45;&gt;n8c5206359180a6a5e9d76ce7e51def2c</title>
<path fill="none" stroke="#000000" d="M274.2533,-154.9481C265.6013,-149.1455 256.9814,-143.0772 249,-137 238.4681,-128.9808 227.6947,-120.0362 217.375,-111.0439"/>
<polygon fill="#000000" stroke="#000000" points="219.3986,-108.1619 209.5834,-104.1728 214.7687,-113.4121 219.3986,-108.1619"/>
<text text-anchor="start" x="249" y="-125.8" font-family="Times,serif" font-size="14.00" fill="#000000">geo:hasGeometry</text>
</g>
<!-- n372f0ec0a2c0bab14216b4f40cba5111&#45;&gt;n00499173297ca522582722effea83067 -->
<g id="edge5" class="edge">
<title>n372f0ec0a2c0bab14216b4f40cba5111&#45;&gt;n00499173297ca522582722effea83067</title>
<path fill="none" stroke="#000000" d="M369.7194,-154.891C373.1511,-149.049 376.3652,-142.9856 379,-137 383.7499,-126.2095 387.6378,-114.1804 390.7511,-102.6462"/>
<polygon fill="#000000" stroke="#000000" points="394.2127,-103.2354 393.2897,-92.6809 387.4293,-101.5074 394.2127,-103.2354"/>
<text text-anchor="start" x="385" y="-125.8" font-family="Times,serif" font-size="14.00" fill="#000000">vocab:alloy</text>
</g>
</g>
</svg>
