<?xml version="1.0" encoding="UTF-8" standalone="no"?>
<!DOCTYPE svg PUBLIC "-//W3C//DTD SVG 1.1//EN"
 "http://www.w3.org/Graphics/SVG/1.1/DTD/svg11.dtd">
<!-- Generated by graphviz version 2.40.1 (0)
 -->
<!-- Title: cshapes_vocab Pages: 1 -->
<svg width="537pt" height="697pt"
 viewBox="0.00 0.00 537.00 697.00" xmlns="http://www.w3.org/2000/svg" xmlns:xlink="http://www.w3.org/1999/xlink">
<g id="graph0" class="graph" transform="scale(1 1) rotate(0) translate(4 693)">
<title>cshapes_vocab</title>
<polygon fill="#ffffff" stroke="transparent" points="-4,4 -4,-693 533,-693 533,4 -4,4"/>
<!-- n92e5b4291098219a63309cd748df471f -->
<g id="node1" class="node">
<title>n92e5b4291098219a63309cd748df471f</title>
<g id="a_node1"><a xlink:href="http://www.opengis.net/ont/geosparql#Feature" xlink:title="&lt;TABLE&gt;">
<polygon fill="none" stroke="#000000" points="51,-660 51,-681 153,-681 153,-660 51,-660"/>
<text text-anchor="start" x="54.5" y="-667.8" font-family="Times,serif" font-weight="bold" font-size="14.00" fill="#000000">geo:Feature</text>
<polygon fill="none" stroke="#000000" points="48,-657.5 48,-684.5 156,-684.5 156,-657.5 48,-657.5"/>
</a>
</g>
</g>
<!-- n600612a402206f6e454667e38d074ef5 -->
<g id="node3" class="node">
<title>n600612a402206f6e454667e38d074ef5</title>
<g id="a_node3"><a xlink:href="https://iisg.amsterdam/vocab/Capital" xlink:title="&lt;TABLE&gt;">
<polygon fill="none" stroke="#000000" points="11,-139 11,-160 195,-160 195,-139 11,-139"/>
<text text-anchor="start" x="49" y="-146.8" font-family="Times,serif" font-weight="bold" font-size="14.00" fill="#000000">vocab:Capital</text>
<polygon fill="none" stroke="#000000" points="11,-116 11,-137 85,-137 85,-116 11,-116"/>
<text text-anchor="start" x="14" y="-122.8" font-family="Times,serif" font-size="14.00" fill="#000000">rdfs:label</text>
<polygon fill="none" stroke="#000000" points="87,-116 87,-137 195,-137 195,-116 87,-116"/>
<text text-anchor="start" x="90" y="-122.8" font-family="Times,serif" font-size="14.00" fill="#000000">rdf:langString</text>
<polygon fill="none" stroke="#000000" points="8,-113 8,-163 198,-163 198,-113 8,-113"/>
</a>
</g>
</g>
<!-- n92e5b4291098219a63309cd748df471f&#45;&gt;n600612a402206f6e454667e38d074ef5 -->
<g id="edge2" class="edge">
<title>n92e5b4291098219a63309cd748df471f&#45;&gt;n600612a402206f6e454667e38d074ef5</title>
<g id="a_edge2"><a xlink:href="http://www.w3.org/2000/01/rdf-schema#subClassOf">
<path fill="none" stroke="#000000" d="M91.0274,-643.2398C88.1471,-634.6473 85.4443,-625.0566 84,-616 56.1427,-441.3184 63.4232,-393.688 84,-218 85.9927,-200.986 90.292,-182.3445 94.2977,-167.3397"/>
<polygon fill="none" stroke="#000000" points="87.7719,-644.5311 94.4253,-652.7763 94.3658,-642.1816 87.7719,-644.5311"/>
</a>
</g>
</g>
<!-- nc4dc8eed198bf9d5c08208c1220d092d -->
<g id="node6" class="node">
<title>nc4dc8eed198bf9d5c08208c1220d092d</title>
<g id="a_node6"><a xlink:href="https://iisg.amsterdam/vocab/TemporalSlice" xlink:title="&lt;TABLE&gt;">
<polygon fill="none" stroke="#000000" points="104,-587 104,-608 276,-608 276,-587 104,-587"/>
<text text-anchor="start" x="107.5" y="-594.8" font-family="Times,serif" font-weight="bold" font-size="14.00" fill="#000000">vocab:TemporalSlice</text>
<polygon fill="none" stroke="#000000" points="101,-584.5 101,-611.5 279,-611.5 279,-584.5 101,-584.5"/>
</a>
</g>
</g>
<!-- n92e5b4291098219a63309cd748df471f&#45;&gt;nc4dc8eed198bf9d5c08208c1220d092d -->
<g id="edge7" class="edge">
<title>n92e5b4291098219a63309cd748df471f&#45;&gt;nc4dc8eed198bf9d5c08208c1220d092d</title>
<g id="a_edge7"><a xlink:href="http://www.w3.org/2000/01/rdf-schema#subClassOf">
<path fill="none" stroke="#000000" d="M131.7203,-646.3457C143.6648,-636.4372 157.184,-625.2224 168.1924,-616.0904"/>
<polygon fill="none" stroke="#000000" points="129.2147,-643.8766 123.7528,-652.9551 133.684,-649.2642 129.2147,-643.8766"/>
</a>
</g>
</g>
<!-- n8c5206359180a6a5e9d76ce7e51def2c -->
<g id="node2" class="node">
<title>n8c5206359180a6a5e9d76ce7e51def2c</title>
<g id="a_node2"><a xlink:href="http://www.opengis.net/ont/geosparql#Geometry" xlink:title="&lt;TABLE&gt;">
<polygon fill="none" stroke="#000000" points="72,-30 72,-51 274,-51 274,-30 72,-30"/>
<text text-anchor="start" x="117" y="-37.8" font-family="Times,serif" font-weight="bold" font-size="14.00" fill="#000000">geo:Geometry</text>
<polygon fill="none" stroke="#000000" points="72,-7 72,-28 160,-28 160,-7 72,-7"/>
<text text-anchor="start" x="75" y="-13.8" font-family="Times,serif" font-size="14.00" fill="#000000">geo:asWKT</text>
<polygon fill="none" stroke="#000000" points="162,-7 162,-28 274,-28 274,-7 162,-7"/>
<text text-anchor="start" x="165" y="-13.8" font-family="Times,serif" font-size="14.00" fill="#000000">geo:wktLiteral</text>
<polygon fill="none" stroke="#000000" points="69,-4 69,-54 277,-54 277,-4 69,-4"/>
</a>
</g>
</g>
<!-- n600612a402206f6e454667e38d074ef5&#45;&gt;n8c5206359180a6a5e9d76ce7e51def2c -->
<g id="edge1" class="edge">
<title>n600612a402206f6e454667e38d074ef5&#45;&gt;n8c5206359180a6a5e9d76ce7e51def2c</title>
<path fill="none" stroke="#000000" d="M98.0196,-108.806C97.5255,-97.935 98.6867,-85.8548 104,-76 106.0507,-72.1965 108.5595,-68.6415 111.3919,-65.3287"/>
<polygon fill="#000000" stroke="#000000" points="114.0351,-67.6317 118.5249,-58.0352 109.0306,-62.7373 114.0351,-67.6317"/>
<text text-anchor="start" x="104" y="-79.8" font-family="Times,serif" font-size="14.00" fill="#000000">geo:hasGeometry</text>
</g>
<!-- n2fc57b78a2dbe2a88b0b43d8333629a5 -->
<g id="node4" class="node">
<title>n2fc57b78a2dbe2a88b0b43d8333629a5</title>
<g id="a_node4"><a xlink:href="https://iisg.amsterdam/vocab/Country" xlink:title="&lt;TABLE&gt;">
<polygon fill="none" stroke="#000000" points="316,-587 316,-608 438,-608 438,-587 316,-587"/>
<text text-anchor="start" x="319" y="-594.8" font-family="Times,serif" font-weight="bold" font-size="14.00" fill="#000000">vocab:Country</text>
<polygon fill="none" stroke="#000000" points="313,-584.5 313,-611.5 441,-611.5 441,-584.5 313,-584.5"/>
</a>
</g>
</g>
<!-- nc4b1b71526297990ced7f9be84d0e6d4 -->
<g id="node5" class="node">
<title>nc4b1b71526297990ced7f9be84d0e6d4</title>
<g id="a_node5"><a xlink:href="https://iisg.amsterdam/vocab/CountrySlice" xlink:title="&lt;TABLE&gt;">
<polygon fill="none" stroke="#000000" points="104,-500.5 104,-521.5 384,-521.5 384,-500.5 104,-500.5"/>
<text text-anchor="start" x="166.5" y="-508.3" font-family="Times,serif" font-weight="bold" font-size="14.00" fill="#000000">vocab:CountrySlice</text>
<polygon fill="none" stroke="#000000" points="104,-477.5 104,-498.5 237,-498.5 237,-477.5 104,-477.5"/>
<text text-anchor="start" x="136.5" y="-484.3" font-family="Times,serif" font-size="14.00" fill="#000000">rdfs:label</text>
<polygon fill="none" stroke="#000000" points="239,-477.5 239,-498.5 384,-498.5 384,-477.5 239,-477.5"/>
<text text-anchor="start" x="260.5" y="-484.3" font-family="Times,serif" font-size="14.00" fill="#000000">rdf:langString</text>
<polygon fill="none" stroke="#000000" points="104,-454.5 104,-475.5 237,-475.5 237,-454.5 104,-454.5"/>
<text text-anchor="start" x="131" y="-461.3" font-family="Times,serif" font-size="14.00" fill="#000000">vocab:area</text>
<polygon fill="none" stroke="#000000" points="239,-454.5 239,-475.5 384,-475.5 384,-454.5 239,-454.5"/>
<text text-anchor="start" x="272.5" y="-461.3" font-family="Times,serif" font-size="14.00" fill="#000000">xsd:double</text>
<polygon fill="none" stroke="#000000" points="104,-431.5 104,-452.5 237,-452.5 237,-431.5 104,-431.5"/>
<text text-anchor="start" x="114.5" y="-438.3" font-family="Times,serif" font-size="14.00" fill="#000000">vocab:cowCode</text>
<polygon fill="none" stroke="#000000" points="239,-431.5 239,-452.5 384,-452.5 384,-431.5 239,-431.5"/>
<text text-anchor="start" x="275" y="-438.3" font-family="Times,serif" font-size="14.00" fill="#000000">xsd:string</text>
<polygon fill="none" stroke="#000000" points="104,-408.5 104,-429.5 237,-429.5 237,-408.5 104,-408.5"/>
<text text-anchor="start" x="118.5" y="-415.3" font-family="Times,serif" font-size="14.00" fill="#000000">vocab:cowEnd</text>
<polygon fill="none" stroke="#000000" points="239,-408.5 239,-429.5 384,-429.5 384,-408.5 239,-408.5"/>
<text text-anchor="start" x="281" y="-415.3" font-family="Times,serif" font-size="14.00" fill="#000000">xsd:date</text>
<polygon fill="none" stroke="#000000" points="104,-385.5 104,-406.5 237,-406.5 237,-385.5 104,-385.5"/>
<text text-anchor="start" x="114.5" y="-392.3" font-family="Times,serif" font-size="14.00" fill="#000000">vocab:cowStart</text>
<polygon fill="none" stroke="#000000" points="239,-385.5 239,-406.5 384,-406.5 384,-385.5 239,-385.5"/>
<text text-anchor="start" x="281" y="-392.3" font-family="Times,serif" font-size="14.00" fill="#000000">xsd:date</text>
<polygon fill="none" stroke="#000000" points="104,-362.5 104,-383.5 237,-383.5 237,-362.5 104,-362.5"/>
<text text-anchor="start" x="118" y="-369.3" font-family="Times,serif" font-size="14.00" fill="#000000">vocab:gwCode</text>
<polygon fill="none" stroke="#000000" points="239,-362.5 239,-383.5 384,-383.5 384,-362.5 239,-362.5"/>
<text text-anchor="start" x="275" y="-369.3" font-family="Times,serif" font-size="14.00" fill="#000000">xsd:string</text>
<polygon fill="none" stroke="#000000" points="104,-339.5 104,-360.5 237,-360.5 237,-339.5 104,-339.5"/>
<text text-anchor="start" x="122" y="-346.3" font-family="Times,serif" font-size="14.00" fill="#000000">vocab:gwEnd</text>
<polygon fill="none" stroke="#000000" points="239,-339.5 239,-360.5 384,-360.5 384,-339.5 239,-339.5"/>
<text text-anchor="start" x="281" y="-346.3" font-family="Times,serif" font-size="14.00" fill="#000000">xsd:date</text>
<polygon fill="none" stroke="#000000" points="104,-316.5 104,-337.5 237,-337.5 237,-316.5 104,-316.5"/>
<text text-anchor="start" x="118" y="-323.3" font-family="Times,serif" font-size="14.00" fill="#000000">vocab:gwStart</text>
<polygon fill="none" stroke="#000000" points="239,-316.5 239,-337.5 384,-337.5 384,-316.5 239,-316.5"/>
<text text-anchor="start" x="281" y="-323.3" font-family="Times,serif" font-size="14.00" fill="#000000">xsd:date</text>
<polygon fill="none" stroke="#000000" points="104,-293.5 104,-314.5 237,-314.5 237,-293.5 104,-293.5"/>
<text text-anchor="start" x="111.5" y="-300.3" font-family="Times,serif" font-size="14.00" fill="#000000">vocab:isoAlpha2</text>
<polygon fill="none" stroke="#000000" points="239,-293.5 239,-314.5 384,-314.5 384,-293.5 239,-293.5"/>
<text text-anchor="start" x="275" y="-300.3" font-family="Times,serif" font-size="14.00" fill="#000000">xsd:string</text>
<polygon fill="none" stroke="#000000" points="104,-270.5 104,-291.5 237,-291.5 237,-270.5 104,-270.5"/>
<text text-anchor="start" x="111.5" y="-277.3" font-family="Times,serif" font-size="14.00" fill="#000000">vocab:isoAlpha3</text>
<polygon fill="none" stroke="#000000" points="239,-270.5 239,-291.5 384,-291.5 384,-270.5 239,-270.5"/>
<text text-anchor="start" x="275" y="-277.3" font-family="Times,serif" font-size="14.00" fill="#000000">xsd:string</text>
<polygon fill="none" stroke="#000000" points="104,-247.5 104,-268.5 237,-268.5 237,-247.5 104,-247.5"/>
<text text-anchor="start" x="115.5" y="-254.3" font-family="Times,serif" font-size="14.00" fill="#000000">vocab:isoName</text>
<polygon fill="none" stroke="#000000" points="239,-247.5 239,-268.5 384,-268.5 384,-247.5 239,-247.5"/>
<text text-anchor="start" x="260.5" y="-254.3" font-family="Times,serif" font-size="14.00" fill="#000000">rdf:langString</text>
<polygon fill="none" stroke="#000000" points="104,-224.5 104,-245.5 237,-245.5 237,-224.5 104,-224.5"/>
<text text-anchor="start" x="107" y="-231.3" font-family="Times,serif" font-size="14.00" fill="#000000">vocab:isoNumber</text>
<polygon fill="none" stroke="#000000" points="239,-224.5 239,-245.5 384,-245.5 384,-224.5 239,-224.5"/>
<text text-anchor="start" x="242" y="-231.3" font-family="Times,serif" font-size="14.00" fill="#000000">xsd:positiveInteger</text>
<polygon fill="none" stroke="#000000" points="101,-222 101,-525 387,-525 387,-222 101,-222"/>
</a>
</g>
</g>
<!-- n2fc57b78a2dbe2a88b0b43d8333629a5&#45;&gt;nc4b1b71526297990ced7f9be84d0e6d4 -->
<g id="edge3" class="edge">
<title>n2fc57b78a2dbe2a88b0b43d8333629a5&#45;&gt;nc4b1b71526297990ced7f9be84d0e6d4</title>
<path fill="none" stroke="#000000" d="M366.1161,-579.6282C359.8028,-568.9716 351.1752,-554.4084 341.4025,-537.9125"/>
<polygon fill="#000000" stroke="#000000" points="344.3021,-535.9401 336.1939,-529.1205 338.2797,-539.508 344.3021,-535.9401"/>
<text text-anchor="start" x="354" y="-550.8" font-family="Times,serif" font-size="14.00" fill="#000000">vocab:hasTemporalSlice</text>
</g>
<!-- nc4b1b71526297990ced7f9be84d0e6d4&#45;&gt;n8c5206359180a6a5e9d76ce7e51def2c -->
<g id="edge4" class="edge">
<title>nc4b1b71526297990ced7f9be84d0e6d4&#45;&gt;n8c5206359180a6a5e9d76ce7e51def2c</title>
<path fill="none" stroke="#000000" d="M260.3904,-217.9408C259.3016,-170.2939 251.5842,-119.1153 230,-76 228.2102,-72.4248 226.0112,-69.0235 223.5291,-65.8066"/>
<polygon fill="#000000" stroke="#000000" points="226.0758,-63.4023 216.8481,-58.1964 220.8153,-68.0205 226.0758,-63.4023"/>
<text text-anchor="start" x="256" y="-134.3" font-family="Times,serif" font-size="14.00" fill="#000000">geo:hasGeometry</text>
</g>
<!-- nc4b1b71526297990ced7f9be84d0e6d4&#45;&gt;n600612a402206f6e454667e38d074ef5 -->
<g id="edge6" class="edge">
<title>nc4b1b71526297990ced7f9be84d0e6d4&#45;&gt;n600612a402206f6e454667e38d074ef5</title>
<path fill="none" stroke="#000000" d="M144.2997,-217.8945C140.7786,-211.8792 137.3338,-205.8996 134,-200 129.7021,-192.3941 125.3489,-184.1163 121.3174,-176.1593"/>
<polygon fill="#000000" stroke="#000000" points="124.3548,-174.4074 116.7552,-167.0252 118.0925,-177.5353 124.3548,-174.4074"/>
<text text-anchor="start" x="134" y="-188.8" font-family="Times,serif" font-size="14.00" fill="#000000">vocab:capital</text>
</g>
<!-- nc4dc8eed198bf9d5c08208c1220d092d&#45;&gt;nc4b1b71526297990ced7f9be84d0e6d4 -->
<g id="edge5" class="edge">
<title>nc4dc8eed198bf9d5c08208c1220d092d&#45;&gt;nc4b1b71526297990ced7f9be84d0e6d4</title>
<g id="a_edge5"><a xlink:href="http://www.w3.org/2000/01/rdf-schema#subClassOf">
<path fill="none" stroke="#000000" d="M196.8232,-569.6333C199.5457,-558.3146 202.9055,-544.3466 206.5679,-529.1205"/>
<polygon fill="none" stroke="#000000" points="193.3548,-569.087 194.419,-579.6282 200.1607,-570.7241 193.3548,-569.087"/>
</a>
</g>
</g>
</g>
</svg>
