<?xml version="1.0" encoding="UTF-8" standalone="no"?>
<!DOCTYPE svg PUBLIC "-//W3C//DTD SVG 1.1//EN"
 "http://www.w3.org/Graphics/SVG/1.1/DTD/svg11.dtd">
<!-- Generated by graphviz version 2.40.1 (20161225.0304)
 -->
<!-- Title: shacl Pages: 1 -->
<svg width="558pt" height="697pt"
 viewBox="0.00 0.00 558.00 697.00" xmlns="http://www.w3.org/2000/svg" xmlns:xlink="http://www.w3.org/1999/xlink">
<g id="graph0" class="graph" transform="scale(1 1) rotate(0) translate(4 693)">
<title>shacl</title>
<polygon fill="#ffffff" stroke="transparent" points="-4,4 -4,-693 554,-693 554,4 -4,4"/>
<!-- nbe135c9e20bf355fb7a1f807005162cd -->
<g id="node1" class="node">
<title>nbe135c9e20bf355fb7a1f807005162cd</title>
<g id="a_node1"><a xlink:href="http://www.w3.org/2003/01/geo/wgs84_pos#Feature" xlink:title="&lt;TABLE&gt;">
<polygon fill="none" stroke="#000000" points="62,-660 62,-681 184,-681 184,-660 62,-660"/>
<text text-anchor="start" x="65" y="-667.8" font-family="Times,serif" font-weight="bold" font-size="14.00" fill="#000000">wgs84:Feature</text>
<polygon fill="none" stroke="#000000" points="59,-657.5 59,-684.5 187,-684.5 187,-657.5 59,-657.5"/>
</a>
</g>
</g>
<!-- n600612a402206f6e454667e38d074ef5 -->
<g id="node3" class="node">
<title>n600612a402206f6e454667e38d074ef5</title>
<g id="a_node3"><a xlink:href="https://iisg.amsterdam/vocab/Capital" xlink:title="&lt;TABLE&gt;">
<polygon fill="none" stroke="#000000" points="11,-139 11,-160 195,-160 195,-139 11,-139"/>
<text text-anchor="start" x="49" y="-146.8" font-family="Times,serif" font-weight="bold" font-size="14.00" fill="#000000">vocab:Capital</text>
<polygon fill="none" stroke="#000000" points="11,-116 11,-137 85,-137 85,-116 11,-116"/>
<text text-anchor="start" x="14" y="-122.8" font-family="Times,serif" font-size="14.00" fill="#000000">rdfs:label</text>
<polygon fill="none" stroke="#000000" points="87,-116 87,-137 195,-137 195,-116 87,-116"/>
<text text-anchor="start" x="90" y="-122.8" font-family="Times,serif" font-size="14.00" fill="#000000">rdf:langString</text>
<polygon fill="none" stroke="#000000" points="8,-113 8,-163 198,-163 198,-113 8,-113"/>
</a>
</g>
</g>
<!-- nbe135c9e20bf355fb7a1f807005162cd&#45;&gt;n600612a402206f6e454667e38d074ef5 -->
<g id="edge1" class="edge">
<title>nbe135c9e20bf355fb7a1f807005162cd&#45;&gt;n600612a402206f6e454667e38d074ef5</title>
<g id="a_edge1"><a xlink:href="http://www.w3.org/2000/01/rdf-schema#subClassOf">
<path fill="none" stroke="#000000" d="M112.0509,-643.236C109.1715,-634.6434 106.4632,-625.0535 105,-616 77.8237,-447.8515 92.9394,-242.0659 100.0006,-167.0833"/>
<polygon fill="none" stroke="#000000" points="108.7948,-644.5256 115.4453,-652.7731 115.3895,-642.1784 108.7948,-644.5256"/>
</a>
</g>
</g>
<!-- nc4dc8eed198bf9d5c08208c1220d092d -->
<g id="node6" class="node">
<title>nc4dc8eed198bf9d5c08208c1220d092d</title>
<g id="a_node6"><a xlink:href="https://iisg.amsterdam/vocab/TemporalSlice" xlink:title="&lt;TABLE&gt;">
<polygon fill="none" stroke="#000000" points="125,-587 125,-608 297,-608 297,-587 125,-587"/>
<text text-anchor="start" x="128.5" y="-594.8" font-family="Times,serif" font-weight="bold" font-size="14.00" fill="#000000">vocab:TemporalSlice</text>
<polygon fill="none" stroke="#000000" points="122,-584.5 122,-611.5 300,-611.5 300,-584.5 122,-584.5"/>
</a>
</g>
</g>
<!-- nbe135c9e20bf355fb7a1f807005162cd&#45;&gt;nc4dc8eed198bf9d5c08208c1220d092d -->
<g id="edge7" class="edge">
<title>nbe135c9e20bf355fb7a1f807005162cd&#45;&gt;nc4dc8eed198bf9d5c08208c1220d092d</title>
<g id="a_edge7"><a xlink:href="http://www.w3.org/2000/01/rdf-schema#subClassOf">
<path fill="none" stroke="#000000" d="M152.7203,-646.3457C164.6648,-636.4372 178.184,-625.2224 189.1924,-616.0904"/>
<polygon fill="none" stroke="#000000" points="150.2147,-643.8766 144.7528,-652.9551 154.684,-649.2642 150.2147,-643.8766"/>
</a>
</g>
</g>
<!-- n47a4730b67c634b2d0729c7ad03b5617 -->
<g id="node2" class="node">
<title>n47a4730b67c634b2d0729c7ad03b5617</title>
<g id="a_node2"><a xlink:href="http://www.w3.org/2003/01/geo/wgs84_pos#Geometry" xlink:title="&lt;TABLE&gt;">
<polygon fill="none" stroke="#000000" points="62,-30 62,-51 306,-51 306,-30 62,-30"/>
<text text-anchor="start" x="117.5" y="-37.8" font-family="Times,serif" font-weight="bold" font-size="14.00" fill="#000000">wgs84:Geometry</text>
<polygon fill="none" stroke="#000000" points="62,-7 62,-28 171,-28 171,-7 62,-7"/>
<text text-anchor="start" x="65" y="-13.8" font-family="Times,serif" font-size="14.00" fill="#000000">wgs84:asWKT</text>
<polygon fill="none" stroke="#000000" points="173,-7 173,-28 306,-28 306,-7 173,-7"/>
<text text-anchor="start" x="176" y="-13.8" font-family="Times,serif" font-size="14.00" fill="#000000">wgs84:wktLiteral</text>
<polygon fill="none" stroke="#000000" points="59,-4 59,-54 309,-54 309,-4 59,-4"/>
</a>
</g>
</g>
<!-- n600612a402206f6e454667e38d074ef5&#45;&gt;n47a4730b67c634b2d0729c7ad03b5617 -->
<g id="edge2" class="edge">
<title>n600612a402206f6e454667e38d074ef5&#45;&gt;n47a4730b67c634b2d0729c7ad03b5617</title>
<path fill="none" stroke="#000000" d="M97.6907,-108.9266C97.1151,-97.9497 98.3064,-85.7649 104,-76 106.2985,-72.0579 109.0679,-68.4128 112.1758,-65.0471"/>
<polygon fill="#000000" stroke="#000000" points="114.6295,-67.5437 119.4691,-58.1187 109.8083,-62.4686 114.6295,-67.5437"/>
<text text-anchor="start" x="104" y="-79.8" font-family="Times,serif" font-size="14.00" fill="#000000">wgs84:hasGeometry</text>
</g>
<!-- n2fc57b78a2dbe2a88b0b43d8333629a5 -->
<g id="node4" class="node">
<title>n2fc57b78a2dbe2a88b0b43d8333629a5</title>
<g id="a_node4"><a xlink:href="https://iisg.amsterdam/vocab/Country" xlink:title="&lt;TABLE&gt;">
<polygon fill="none" stroke="#000000" points="337,-587 337,-608 459,-608 459,-587 337,-587"/>
<text text-anchor="start" x="340" y="-594.8" font-family="Times,serif" font-weight="bold" font-size="14.00" fill="#000000">vocab:Country</text>
<polygon fill="none" stroke="#000000" points="334,-584.5 334,-611.5 462,-611.5 462,-584.5 334,-584.5"/>
</a>
</g>
</g>
<!-- nc4b1b71526297990ced7f9be84d0e6d4 -->
<g id="node5" class="node">
<title>nc4b1b71526297990ced7f9be84d0e6d4</title>
<g id="a_node5"><a xlink:href="https://iisg.amsterdam/vocab/CountrySlice" xlink:title="&lt;TABLE&gt;">
<polygon fill="none" stroke="#000000" points="125,-500.5 125,-521.5 405,-521.5 405,-500.5 125,-500.5"/>
<text text-anchor="start" x="187.5" y="-508.3" font-family="Times,serif" font-weight="bold" font-size="14.00" fill="#000000">vocab:CountrySlice</text>
<polygon fill="none" stroke="#000000" points="125,-477.5 125,-498.5 258,-498.5 258,-477.5 125,-477.5"/>
<text text-anchor="start" x="157.5" y="-484.3" font-family="Times,serif" font-size="14.00" fill="#000000">rdfs:label</text>
<polygon fill="none" stroke="#000000" points="260,-477.5 260,-498.5 405,-498.5 405,-477.5 260,-477.5"/>
<text text-anchor="start" x="281.5" y="-484.3" font-family="Times,serif" font-size="14.00" fill="#000000">rdf:langString</text>
<polygon fill="none" stroke="#000000" points="125,-454.5 125,-475.5 258,-475.5 258,-454.5 125,-454.5"/>
<text text-anchor="start" x="152" y="-461.3" font-family="Times,serif" font-size="14.00" fill="#000000">vocab:area</text>
<polygon fill="none" stroke="#000000" points="260,-454.5 260,-475.5 405,-475.5 405,-454.5 260,-454.5"/>
<text text-anchor="start" x="293.5" y="-461.3" font-family="Times,serif" font-size="14.00" fill="#000000">xsd:double</text>
<polygon fill="none" stroke="#000000" points="125,-431.5 125,-452.5 258,-452.5 258,-431.5 125,-431.5"/>
<text text-anchor="start" x="135.5" y="-438.3" font-family="Times,serif" font-size="14.00" fill="#000000">vocab:cowCode</text>
<polygon fill="none" stroke="#000000" points="260,-431.5 260,-452.5 405,-452.5 405,-431.5 260,-431.5"/>
<text text-anchor="start" x="296" y="-438.3" font-family="Times,serif" font-size="14.00" fill="#000000">xsd:string</text>
<polygon fill="none" stroke="#000000" points="125,-408.5 125,-429.5 258,-429.5 258,-408.5 125,-408.5"/>
<text text-anchor="start" x="139.5" y="-415.3" font-family="Times,serif" font-size="14.00" fill="#000000">vocab:cowEnd</text>
<polygon fill="none" stroke="#000000" points="260,-408.5 260,-429.5 405,-429.5 405,-408.5 260,-408.5"/>
<text text-anchor="start" x="302" y="-415.3" font-family="Times,serif" font-size="14.00" fill="#000000">xsd:date</text>
<polygon fill="none" stroke="#000000" points="125,-385.5 125,-406.5 258,-406.5 258,-385.5 125,-385.5"/>
<text text-anchor="start" x="135.5" y="-392.3" font-family="Times,serif" font-size="14.00" fill="#000000">vocab:cowStart</text>
<polygon fill="none" stroke="#000000" points="260,-385.5 260,-406.5 405,-406.5 405,-385.5 260,-385.5"/>
<text text-anchor="start" x="302" y="-392.3" font-family="Times,serif" font-size="14.00" fill="#000000">xsd:date</text>
<polygon fill="none" stroke="#000000" points="125,-362.5 125,-383.5 258,-383.5 258,-362.5 125,-362.5"/>
<text text-anchor="start" x="139" y="-369.3" font-family="Times,serif" font-size="14.00" fill="#000000">vocab:gwCode</text>
<polygon fill="none" stroke="#000000" points="260,-362.5 260,-383.5 405,-383.5 405,-362.5 260,-362.5"/>
<text text-anchor="start" x="296" y="-369.3" font-family="Times,serif" font-size="14.00" fill="#000000">xsd:string</text>
<polygon fill="none" stroke="#000000" points="125,-339.5 125,-360.5 258,-360.5 258,-339.5 125,-339.5"/>
<text text-anchor="start" x="143" y="-346.3" font-family="Times,serif" font-size="14.00" fill="#000000">vocab:gwEnd</text>
<polygon fill="none" stroke="#000000" points="260,-339.5 260,-360.5 405,-360.5 405,-339.5 260,-339.5"/>
<text text-anchor="start" x="302" y="-346.3" font-family="Times,serif" font-size="14.00" fill="#000000">xsd:date</text>
<polygon fill="none" stroke="#000000" points="125,-316.5 125,-337.5 258,-337.5 258,-316.5 125,-316.5"/>
<text text-anchor="start" x="139" y="-323.3" font-family="Times,serif" font-size="14.00" fill="#000000">vocab:gwStart</text>
<polygon fill="none" stroke="#000000" points="260,-316.5 260,-337.5 405,-337.5 405,-316.5 260,-316.5"/>
<text text-anchor="start" x="302" y="-323.3" font-family="Times,serif" font-size="14.00" fill="#000000">xsd:date</text>
<polygon fill="none" stroke="#000000" points="125,-293.5 125,-314.5 258,-314.5 258,-293.5 125,-293.5"/>
<text text-anchor="start" x="132.5" y="-300.3" font-family="Times,serif" font-size="14.00" fill="#000000">vocab:isoAlpha2</text>
<polygon fill="none" stroke="#000000" points="260,-293.5 260,-314.5 405,-314.5 405,-293.5 260,-293.5"/>
<text text-anchor="start" x="296" y="-300.3" font-family="Times,serif" font-size="14.00" fill="#000000">xsd:string</text>
<polygon fill="none" stroke="#000000" points="125,-270.5 125,-291.5 258,-291.5 258,-270.5 125,-270.5"/>
<text text-anchor="start" x="132.5" y="-277.3" font-family="Times,serif" font-size="14.00" fill="#000000">vocab:isoAlpha3</text>
<polygon fill="none" stroke="#000000" points="260,-270.5 260,-291.5 405,-291.5 405,-270.5 260,-270.5"/>
<text text-anchor="start" x="296" y="-277.3" font-family="Times,serif" font-size="14.00" fill="#000000">xsd:string</text>
<polygon fill="none" stroke="#000000" points="125,-247.5 125,-268.5 258,-268.5 258,-247.5 125,-247.5"/>
<text text-anchor="start" x="136.5" y="-254.3" font-family="Times,serif" font-size="14.00" fill="#000000">vocab:isoName</text>
<polygon fill="none" stroke="#000000" points="260,-247.5 260,-268.5 405,-268.5 405,-247.5 260,-247.5"/>
<text text-anchor="start" x="281.5" y="-254.3" font-family="Times,serif" font-size="14.00" fill="#000000">rdf:langString</text>
<polygon fill="none" stroke="#000000" points="125,-224.5 125,-245.5 258,-245.5 258,-224.5 125,-224.5"/>
<text text-anchor="start" x="128" y="-231.3" font-family="Times,serif" font-size="14.00" fill="#000000">vocab:isoNumber</text>
<polygon fill="none" stroke="#000000" points="260,-224.5 260,-245.5 405,-245.5 405,-224.5 260,-224.5"/>
<text text-anchor="start" x="263" y="-231.3" font-family="Times,serif" font-size="14.00" fill="#000000">xsd:positiveInteger</text>
<polygon fill="none" stroke="#000000" points="122,-222 122,-525 408,-525 408,-222 122,-222"/>
</a>
</g>
</g>
<!-- n2fc57b78a2dbe2a88b0b43d8333629a5&#45;&gt;nc4b1b71526297990ced7f9be84d0e6d4 -->
<g id="edge3" class="edge">
<title>n2fc57b78a2dbe2a88b0b43d8333629a5&#45;&gt;nc4b1b71526297990ced7f9be84d0e6d4</title>
<path fill="none" stroke="#000000" d="M387.1161,-579.6282C380.8028,-568.9716 372.1752,-554.4084 362.4025,-537.9125"/>
<polygon fill="#000000" stroke="#000000" points="365.3021,-535.9401 357.1939,-529.1205 359.2797,-539.508 365.3021,-535.9401"/>
<text text-anchor="start" x="375" y="-550.8" font-family="Times,serif" font-size="14.00" fill="#000000">vocab:hasTemporalSlice</text>
</g>
<!-- nc4b1b71526297990ced7f9be84d0e6d4&#45;&gt;n47a4730b67c634b2d0729c7ad03b5617 -->
<g id="edge5" class="edge">
<title>nc4b1b71526297990ced7f9be84d0e6d4&#45;&gt;n47a4730b67c634b2d0729c7ad03b5617</title>
<path fill="none" stroke="#000000" d="M283.4193,-217.6502C282.5003,-169.7315 274.3696,-118.4696 251,-76 248.9193,-72.2188 246.3892,-68.6732 243.5455,-65.3606"/>
<polygon fill="#000000" stroke="#000000" points="245.8971,-62.7592 236.4051,-58.0525 240.8902,-67.6512 245.8971,-62.7592"/>
<text text-anchor="start" x="279" y="-134.3" font-family="Times,serif" font-size="14.00" fill="#000000">wgs84:hasGeometry</text>
</g>
<!-- nc4b1b71526297990ced7f9be84d0e6d4&#45;&gt;n600612a402206f6e454667e38d074ef5 -->
<g id="edge6" class="edge">
<title>nc4b1b71526297990ced7f9be84d0e6d4&#45;&gt;n600612a402206f6e454667e38d074ef5</title>
<path fill="none" stroke="#000000" d="M157.8458,-217.7296C147.2397,-202.3115 137.3038,-187.8676 128.8807,-175.6229"/>
<polygon fill="#000000" stroke="#000000" points="131.578,-173.3684 123.0269,-167.1131 125.8108,-177.3357 131.578,-173.3684"/>
<text text-anchor="start" x="142" y="-188.8" font-family="Times,serif" font-size="14.00" fill="#000000">vocab:capital</text>
</g>
<!-- nc4dc8eed198bf9d5c08208c1220d092d&#45;&gt;nc4b1b71526297990ced7f9be84d0e6d4 -->
<g id="edge4" class="edge">
<title>nc4dc8eed198bf9d5c08208c1220d092d&#45;&gt;nc4b1b71526297990ced7f9be84d0e6d4</title>
<g id="a_edge4"><a xlink:href="http://www.w3.org/2000/01/rdf-schema#subClassOf">
<path fill="none" stroke="#000000" d="M217.8232,-569.6333C220.5457,-558.3146 223.9055,-544.3466 227.5679,-529.1205"/>
<polygon fill="none" stroke="#000000" points="214.3548,-569.087 215.419,-579.6282 221.1607,-570.7241 214.3548,-569.087"/>
</a>
</g>
</g>
</g>
</svg>
